<?xml version="1.0" standalone="no"?>
<!DOCTYPE svg PUBLIC "-//W3C//DTD SVG 1.1//EN" "http://www.w3.org/Graphics/SVG/1.1/DTD/svg11.dtd" >
<!--
2013-9-30: Created.
-->
<svg>
<metadata>
Created by iconfont
</metadata>
<defs>

<font id="mo-icon-font" horiz-adv-x="1024" >
  <font-face
    font-family="mo-icon-font"
    font-weight="500"
    font-stretch="normal"
    units-per-em="1024"
    ascent="896"
    descent="-128"
  />
    <missing-glyph />
    
    <glyph glyph-name="alipay-line" unicode="&#59227;" d="M785.408 179.626667c-92.714667 40.533333-158.72 70.229333-197.973333 89.002666-59.733333-72.362667-122.538667-116.053333-216.746667-116.053333S213.333333 210.602667 220.842667 281.941333c5.12 46.762667 37.205333 123.221333 176.128 109.909334 73.386667-6.826667 106.837333-20.48 166.912-40.277334 15.36 28.330667 28.330667 59.733333 37.888 92.842667H336.213333v26.282667h131.072V517.802667H307.2v29.013333h160.085333V614.741333s1.365333 10.581333 13.312 10.581334H546.133333v-78.848h170.666667v-29.013334h-170.666667v-47.104h139.264a529.493333 529.493333 0 0 0-56.32-141.653333c21.76-7.765333 89.472-28.842667 203.093334-63.274667a341.333333 341.333333 0 1 1-46.762667-85.845333zM512-42.666667C276.352-42.666667 85.333333 148.352 85.333333 384S276.352 810.666667 512 810.666667s426.666667-191.018667 426.666667-426.666667-191.018667-426.666667-426.666667-426.666667z m-152.234667 240.298667c61.44 0 120.490667 37.205333 168.96 100.352-68.608 33.109333-125.610667 49.493333-189.44 49.493333-55.637333 0-84.650667-34.133333-89.770666-60.416-5.12-26.282667 10.581333-89.429333 110.250666-89.429333z"  horiz-adv-x="1024" />

    
    <glyph glyph-name="alipay-fill" unicode="&#59229;" d="M914.005333 240.725333c-163.413333 49.194667-258.346667 78.506667-284.928 87.978667a529.493333 529.493333 0 0 1 56.32 141.653333H546.133333V517.461333h170.666667v29.013334h-170.666667V625.322667h-65.536c-11.946667 0-13.312-10.581333-13.312-10.581334v-67.925333H307.2v-29.013333h160.085333v-47.104H336.213333v-26.282667h265.557334a468.138667 468.138667 0 0 0-37.888-92.842667c-60.074667 19.797333-93.525333 33.450667-166.912 40.277334-138.922667 13.312-171.008-63.146667-176.128-109.909334C213.333333 210.602667 276.48 152.576 370.688 152.576s157.013333 43.690667 216.746667 116.053333c49.792-23.808 142.421333-65.066667 277.930666-123.818666A426.24 426.24 0 0 0 512-42.666667C276.352-42.666667 85.333333 148.352 85.333333 384S276.352 810.666667 512 810.666667s426.666667-191.018667 426.666667-426.666667a425.941333 425.941333 0 0 0-24.661334-143.274667z m-554.24-43.093333c-99.669333 0-115.370667 63.146667-110.250666 89.429333 5.12 26.282667 34.133333 60.416 89.770666 60.416 63.829333 0 120.832-16.384 189.44-49.493333-48.469333-63.146667-107.52-100.352-168.96-100.352z"  horiz-adv-x="1024" />

    
    <glyph glyph-name="edge-line" unicode="&#59231;" d="M341.632 298.624A194.517333 194.517333 0 0 1 341.333333 288C341.333333 186.368 416.128 85.333333 554.666667 85.333333c101.248 0 193.194667 27.946667 256 66.261334v-142.933334C734.336-24.064 644.821333-42.666667 554.666667-42.666667c-234.752 0-341.333333 148.053333-341.333334 330.666667 0 137.856 87.082667 256 210.901334 305.664C364.330667 526.378667 341.333333 454.784 341.333333 426.837333L768 426.666667c0 145.322667-108.714667 256-256 256-213.333333 0-341.376-170.154667-384-255.957334C140.373333 629.888 299.093333 810.666667 512 810.666667c221.866667 0 384-171.946667 384-384v-128H341.333333l0.298667-0.042667z"  horiz-adv-x="1024" />

    
    <glyph glyph-name="chrome-line" unicode="&#59233;" d="M442.24 49.792l82.346667 142.592a191.957333 191.957333 0 0 0-180.650667 98.773333L204.544 532.48a341.461333 341.461333 0 0 1 237.653333-482.688z m94.933333-6.229333A341.333333 341.333333 0 0 1 836.352 490.666667h-164.693333A191.146667 191.146667 0 0 0 704 384a191.146667 191.146667 0 0 0-27.392-98.901333l-139.434667-241.493334z m66.261334 285.482666l0.938666 1.621334a106.666667 106.666667 0 1 1-185.770666 1.792l1.024-1.792a106.624 106.624 0 0 1 183.808-1.621334z m-345.941334 282.453334l82.304-142.506667A192 192 0 0 0 512 576h282.24A340.992 340.992 0 0 1 512 725.333333a340.48 340.48 0 0 1-254.506667-113.877333zM512-42.666667C276.352-42.666667 85.333333 148.352 85.333333 384S276.352 810.666667 512 810.666667s426.666667-191.018667 426.666667-426.666667-191.018667-426.666667-426.666667-426.666667z"  horiz-adv-x="1024" />

    
    <glyph glyph-name="firefox-line" unicode="&#59234;" d="M110.592 560.853333c-4.864 53.845333 24.234667 113.962667 57.130667 142.805334 1.066667-19.456 5.248-36.565333 12.586666-51.285334A425.813333 425.813333 0 0 0 512 810.666667c235.648 0 426.666667-191.018667 426.666667-426.666667s-191.018667-426.666667-426.666667-426.666667S72.533333 148.352 72.533333 405.333333c0 89.173333 32.853333 148.309333 38.058667 155.52z m193.834667 50.218667c31.914667 38.4 85.888 43.690667 118.997333 30.762667-32.128-16.64-56.32-49.28-65.706667-74.88 4.48-19.584 20.352-34.517333 40.192-37.717334 56.32-5.546667 67.114667-9.984 68.778667-16.341333 0.085333-1.706667 0.085333-3.370667 0-5.034667-7.210667-32.938667-33.536-41.429333-49.365333-47.957333-42.24-17.408-97.621333-56.021333-110.677334-80.981333-6.997333-13.44-6.144-25.088 1.962667-43.264 4.906667-10.965333 40.32-41.045333 49.621333-46.336 40.789333-23.04 69.888 0.853333 101.248 5.290666a83.2 83.2 0 0 0 79.317334-30.762666c11.648-15.274667-1.109333-29.696-16.085334-24.96-15.530667 4.992-34.389333-7.808-65.706666-25.258667a156.416 156.416 0 0 0-99.584-11.648 184.96 184.96 0 0 0-24.96 6.656h-3.626667c34.005333-75.733333 119.168-104.234667 183.296-104.234667C725.333333 104.405333 853.333333 256 853.333333 384A341.333333 341.333333 0 0 1 266.410667 621.056c12.928-1.877333 25.728-5.248 38.016-9.984z"  horiz-adv-x="1024" />

    
    <glyph glyph-name="opera-line" unicode="&#59242;" d="M630.016 63.573333a341.461333 341.461333 0 0 1 0 640.853334C712.96 640.981333 768 514.773333 768 384s-54.997333-257.024-137.984-320.426667zM393.984 704.426667a341.461333 341.461333 0 0 1 0-640.853334C311.04 127.018667 256 253.226667 256 384s54.997333 257.024 137.984 320.426667zM512-42.666667C276.352-42.666667 85.333333 148.352 85.333333 384S276.352 810.666667 512 810.666667s426.666667-191.018667 426.666667-426.666667-191.018667-426.666667-426.666667-426.666667z m0 149.333334c85.333333 0 170.666667 129.408 170.666667 277.333333s-85.333333 277.333333-170.666667 277.333333S341.333333 531.925333 341.333333 384s85.333333-277.333333 170.666667-277.333333z"  horiz-adv-x="1024" />

    
    <glyph glyph-name="group" unicode="&#58950;" d="M415.7470735 375.05537487000004a38.57272785 38.57272785 0 0 1-38.56241633 38.56241716 115.69756135 115.69756135 0 0 0 0 231.3951227 38.57272785 38.57272785 0 0 1 0 77.1351442c-106.50032156 0-192.81208415-86.33238398-192.81208416-192.81208415a192.43058407 192.43058407 0 0 1 67.47391872-146.52687317A269.91629623 269.91629623 0 0 1 107.21680741 143.64994228a38.57272785 38.57272785 0 0 1 77.1351442 0c0 106.50032156 86.33238398 192.81208415 192.81208414 192.81208414a38.57272785 38.57272785 0 0 1 38.58303775 38.59334845zM916.72854668 270.69970149999995a382.41750712 382.41750712 0 0 1-134.67975669 86.95103186 243.47938779 243.47938779 0 0 1 35.79912109 29.51983952 241.40691535 241.40691535 0 1 1-341.40111825 0 243.33503633 243.33503633 0 0 1 35.76818818-29.51983952 381.89165558 381.89165558 0 0 1-134.63851307-86.95103186c-69.08240465-68.93805317-111.8722515-164.09648757-111.87225231-269.11205327a32.87085136 32.87085136 0 0 1 65.74170352 0 315.10856129 315.10856129 0 0 0 315.30446627 314.87141268h0.78362157a315.118872 315.118872 0 0 0 315.26322345-314.87141268 32.87085136 32.87085136 0 0 1 65.73139202 0c0.04124362 105.05680851-42.70736123 200.17400009-111.80007578 269.11205327zM647.53400699 382.19045373999995h-0.77331086a175.65490193 175.65490193 0 1 0 0.77331086 0z"  horiz-adv-x="1135" />

    
    <glyph glyph-name="douyin" unicode="&#58938;" d="M436.027077-45.174154c-94.680615 0-176.088615 47.379692-195.032615 120.595692-9.452308 36.942769-3.150769 75.697231 18.944 111.379693 30.916923 50.451692 88.379077 88.615385 157.774769 103.975384a331.421538 331.421538 0 0 0 48.600615 7.404308l-108.544 320.590769a81.644308 81.644308 0 0 0 6.301539 66.481231 89.718154 89.718154 0 0 0 56.162461 43.086769l332.642462 86.764308a56.123077 56.123077 0 0 0 51.751384-11.697231c13.902769-11.657846 20.204308-29.538462 17.683693-47.379692l-19.574154-123.076923a71.955692 71.955692 0 0 0-53.641846-57.816616l-221.538462-56.635076a31.507692 31.507692 0 0 0-38.518154 22.173538 30.601846 30.601846 0 0 0 22.724923 37.533538l221.538462 56.595693c3.780923 1.220923 6.931692 3.702154 7.561846 7.404307l17.723077 110.749539-322.56-84.283077a27.726769 27.726769 0 0 1-17.053539-12.957538 23.512615 23.512615 0 0 1-1.890461-18.432l123.076923-360.644924c3.150769-9.846154 1.260308-20.873846-5.671385-28.908307a31.744 31.744 0 0 0-27.766153-11.067077 234.141538 234.141538 0 0 1-74.476308-4.923077c-51.751385-12.327385-95.940923-40.605538-118.035692-76.327385-9.452308-14.769231-18.904615-38.124308-11.972924-64.590769 15.123692-57.225846 100.352-88.615385 186.171077-68.332308 51.751385 12.327385 95.940923 40.644923 118.035693 76.327385 9.452308 14.769231 18.904615 38.163692 12.012307 64.590769-1.299692 3.702154-15.163077 44.937846-91.529846 267.106462a29.932308 29.932308 0 0 0 20.204308 38.754461c16.384 5.513846 34.697846-3.072 39.778461-19.692307 90.190769-262.774154 91.490462-268.918154 92.75077-271.36 9.452308-36.942769 3.150769-75.697231-18.904616-111.419077-30.956308-50.451692-88.379077-88.615385-157.814154-103.975385a283.766154 283.766154 0 0 0-66.914461-7.995077z"  horiz-adv-x="1024" />

    
    <glyph glyph-name="aliyu" unicode="&#59593;" d="M340.554667 693.333333c124.309333 0 251.584-86.048 383.626666-254.890666C766.784 493.664 812.373333 522.666667 861.866667 522.666667 934.357333 522.666667 992 460.010667 992 384s-57.642667-138.666667-130.133333-138.666667c-49.493333 0-95.082667 29.013333-137.685334 84.224C592.128 160.704 464.874667 74.666667 340.554667 74.666667 170.133333 74.666667 32 213.184 32 384s138.133333 309.333333 308.554667 309.333333z m0-64C205.514667 629.333333 96 519.509333 96 384s109.514667-245.333333 244.554667-245.333333c103.84 0 219.434667 80.597333 344.8 245.333333C560 548.736 444.394667 629.333333 340.554667 629.333333z m44.288-263.413333a32 32 0 1 0 40.981333-49.173333L391.317333 288l34.506667-28.746667a32 32 0 1 0-40.981333-49.173333l-64 53.333333a32 32 0 0 0 0 49.173334z m-138.666667 96a32 32 0 1 0 40.981333-49.173333L252.650667 384l34.506666-28.746667a32 32 0 1 0-40.981333-49.173333l-64 53.333333a32 32 0 0 0 0 49.173334zM861.866667 458.666667c-29.610667 0-62.528-23.36-97.525334-73.653334l0.746667-1.013333-0.746667-1.013333C799.338667 332.704 832.256 309.333333 861.866667 309.333333c35.904 0 66.133333 32.853333 66.133333 74.666667s-30.229333 74.666667-66.133333 74.666667z m-477.013334 99.253333a32 32 0 1 0 40.96-49.173333L391.328 480l34.506667-28.746667a32 32 0 1 0-40.981334-49.173333l-64 53.333333a32 32 0 0 0 0 49.173334z"  horiz-adv-x="1024" />

    
    <glyph glyph-name="lihe" unicode="&#59603;" d="M558.954667 738.645333a101.333333 101.333333 0 1 0 175.509333-101.333333l-19.072-33.034667H864a74.666667 74.666667 0 0 0 74.624-72.106666l0.042667-2.56v-85.333334a74.666667 74.666667 0 0 0-74.666667-74.666666h-10.666667v-288c0-64.810667-52.533333-117.333333-117.333333-117.333334H309.333333c-64.8 0-117.333333 52.522667-117.333333 117.333334v288h-10.666667a74.666667 74.666667 0 0 0-74.624 72.096L106.666667 444.266667v85.333333a74.666667 74.666667 0 0 0 74.666666 74.666667l142.122667 0.010666-19.072 33.034667a101.333333 101.333333 0 1 0 175.509333 101.333333l39.530667-68.448zM789.333333 369.6H256v-288a53.333333 53.333333 0 0 1 53.333333-53.333333h426.666667a53.333333 53.333333 0 0 1 53.333333 53.333333v288z m74.666667 170.666667H181.333333a10.666667 10.666667 0 0 1-10.666666-10.666667v-85.333333a10.666667 10.666667 0 0 1 10.666666-10.666667h682.666667a10.666667 10.666667 0 0 1 10.666667 10.666667v85.333333a10.666667 10.666667 0 0 1-10.666667 10.666667zM373.472 720.32a37.333333 37.333333 0 0 1-13.653333-51.008l37.536-65.034667h84.010666l1.109334 1.92-58.005334 100.448a37.333333 37.333333 0 0 1-50.986666 13.674667z m291.904 0a37.333333 37.333333 0 0 1-50.986667-13.674667L556.373333 606.186667l1.098667-1.909334h84.021333l37.546667 65.034667a37.333333 37.333333 0 0 1-11.861333 49.888z"  horiz-adv-x="1024" />

    
    <glyph glyph-name="shezhi" unicode="&#59618;" d="M944.48 343.541333l-182.357333-330.666666a73.792 73.792 0 0 0-64.565334-38.325334h-362.133333a73.792 73.792 0 0 0-64.565333 38.325334l-182.357334 330.666666a75.338667 75.338667 0 0 0 0 72.682667l182.357334 330.666667a73.792 73.792 0 0 0 64.565333 38.325333h362.133333a73.792 73.792 0 0 0 64.565334-38.325333l182.357333-330.666667a75.338667 75.338667 0 0 0 0-72.682667z m-55.989333 31.146667a10.773333 10.773333 0 0 1 0 10.378667l-182.037334 330.666666a10.517333 10.517333 0 0 1-9.205333 5.482667H335.733333a10.517333 10.517333 0 0 1-9.205333-5.482667l-182.037333-330.666666a10.773333 10.773333 0 0 1 0-10.378667l182.037333-330.666667a10.517333 10.517333 0 0 1 9.205333-5.472h361.514667a10.517333 10.517333 0 0 1 9.205333 5.472l182.037334 330.666667zM513.738667 213.33333300000004c-94.261333 0-170.666667 76.405333-170.666667 170.666667s76.405333 170.666667 170.666667 170.666667c94.250667 0 170.666667-76.405333 170.666666-170.666667s-76.416-170.666667-170.666666-170.666667z m0 64c58.912 0 106.666667 47.754667 106.666666 106.666667s-47.754667 106.666667-106.666666 106.666667-106.666667-47.754667-106.666667-106.666667 47.754667-106.666667 106.666667-106.666667z"  horiz-adv-x="1024" />

    
    <glyph glyph-name="zixun" unicode="&#58946;" d="M883.528712 333.923488c0.208754 8.452509 0.233314 17.051351 0.057305 25.669636 2.299369 116.594485-32.397874 214.880999-100.360755 284.252972-32.416294 33.081443-71.840188 58.472739-117.01711 75.770707-7.009647 62.98245-75.40948 112.566752-158.492734 112.566752-83.078137 0-151.4749-49.584302-158.487617-112.566752-45.171806-17.296945-84.59263-42.689265-117.003807-75.770707C164.241668 574.471053 129.528052 476.38306 131.843794 360.138546c-0.203638-10.985192-0.1361-21.298072 0.204661-31.376615-17.615193-17.730826-31.414477-44.50768-21.330818-82.083483 7.495718-27.927049 28.1532-48.846498 53.501518-58.006112 12.881378-7.940856 28.010961-12.567223 44.196595-12.674671 32.32215-141.30426 149.643182-237.232053 302.844399-237.232053 152.920832 0 270.27154 96.16827 302.405401 237.554394 0.988514-0.214894 2.018983-0.338714 3.070942-0.338714 20.182668 0 38.747489 7.05058 53.391001 18.786878 19.138896 10.860349 34.109866 29.03529 40.246633 51.909254C921.492348 288.096766 903.583466 316.403462 883.528712 333.923488L883.528712 333.923488 883.528712 333.923488M374.036835 502.496811c2.435469-4.071735 60.822251-100.343359 170.82255-142.072763 30.350239-11.515265 61.443397-18.10024 91.51632-24.464181 60.316737-12.778024 117.300566-24.846898 156.121733-75.248821 0.404206-0.523933 0.855484-1.010003 1.319042-1.465374-0.062422-2.541893-0.062422-2.547009-0.062422-2.547009 0-18.789948-1.417279-36.947494-4.1536-54.397934-49.907667-79.739089-132.715651-131.99422-235.299027-143.250588-7.644097 10.093892-23.217794 17.049305-41.307801 17.049305-25.65224 0-46.471404-13.888312-46.471404-30.974455 0-17.127076 20.819165-30.982642 46.471404-30.982642 22.99676 0 41.941228 11.18883 45.627177 25.825179 33.083489 3.801583 64.630996 11.704576 94.204545 23.64963 42.244126 17.058514 79.473029 41.911552 110.635773 73.871451 4.990664 5.106298 9.779737 10.397814 14.411221 15.826454-37.142945-113.1265-136.435369-185.847755-266.064728-185.859012l0 0c-0.233314 0.01228-0.86981 0.01228-1.101077 0.01228-166.328189 0-282.495956 118.93581-282.495956 289.500487l-0.312108 16.23066c-0.204661 6.955412 0.871857 26.492374 2.031263 45.228087 90.674139 32.078603 128.323621 124.244722 129.971144 128.387066L374.036835 502.496811 374.036835 502.496811M433.842942 244.043435c0-29.697369-24.078395-53.776787-53.775764-53.776787-29.697369 0-53.773717 24.079418-53.773717 53.776787 0 29.696346 24.077372 53.772694 53.773717 53.772694C409.765571 297.816129 433.842942 273.737734 433.842942 244.043435L433.842942 244.043435M684.250062 244.043435c0-29.225625-23.688515-52.919257-52.915164-52.919257-29.221532 0-52.910047 23.694655-52.910047 52.919257 0 29.222555 23.690562 52.91414 52.910047 52.91414C660.561547 296.956551 684.250062 273.264966 684.250062 244.043435L684.250062 244.043435M684.250062 244.043435 684.250062 244.043435z"  horiz-adv-x="1024" />

    
    <glyph glyph-name="bianjigongju" unicode="&#59006;" d="M779-1H245c-65.065 0-118 52.935-118 118V651c0 65.065 52.935 118 118 118h534c65.065 0 118-52.935 118-118v-534c0-65.065-52.935-118-118-118zM245 709c-31.981 0-58-26.019-58-58v-534c0-31.981 26.019-58 58-58h534c31.981 0 58 26.019 58 58V651c0 31.981-26.019 58-58 58H245zM339.731 199.992c-8.243 0-16.45 3.377-22.376 10.006-11.042 12.353-9.98 31.317 2.372 42.36l344.559 308.015c12.354 11.043 31.317 9.98 42.36-2.372 11.042-12.353 9.98-31.318-2.372-42.36L359.715 207.626a29.89 29.89 0 0 0-19.984-7.634z"  horiz-adv-x="1024" />

    
    <glyph glyph-name="biansu" unicode="&#59007;" d="M885.161 480.145c-20.4 48.23-49.598 91.54-86.783 128.725-37.185 37.185-80.494 66.382-128.725 86.782-49.949 21.126-102.992 31.839-157.653 31.839-54.662 0-107.704-10.712-157.653-31.839-48.231-20.4-91.54-49.598-128.725-86.782-37.185-37.185-66.383-80.494-86.782-128.725C117.712 430.195 107 377.152 107 322.491c0-44.233 7.093-87.732 21.083-129.29 5.286-15.702 22.3-24.144 38.003-18.861 15.703 5.286 24.147 22.302 18.861 38.004-8.695 25.828-14.245 52.555-16.616 79.775H199.5c16.568 0 30 13.432 30 30s-13.432 30-30 30h-31.214c6.212 72.681 35.047 138.996 79.425 191.862l22.105-22.105c5.858-5.858 13.535-8.787 21.213-8.787s15.355 2.929 21.213 8.787c11.716 11.716 11.715 30.71 0 42.426l-22.136 22.136c52.842 44.494 119.173 73.438 191.894 79.733v-31.552c0-16.568 13.432-30 30-30s30 13.432 30 30v31.552c72.721-6.295 139.052-35.239 191.894-79.733l-22.136-22.136c-11.716-11.716-11.716-30.71 0-42.426 5.858-5.859 13.534-8.787 21.213-8.787 7.677 0 15.355 2.93 21.213 8.787l22.105 22.105c44.378-52.866 73.213-119.181 79.425-191.862H824.5c-16.568 0-30-13.432-30-30s13.432-30 30-30h31.17c-2.412-27.701-8.119-54.886-17.08-81.138-5.353-15.681 3.021-32.73 18.7-38.083a29.91 29.91 0 0 1 9.694-1.616c12.479 0 24.133 7.849 28.389 20.316C909.724 233.641 917 277.68 917 322.491c0 54.661-10.712 107.704-31.839 157.654zM538.404 401.223a31.285 31.285 0 0 1-28.781 19.023h-0.006c-12.539 0-23.837-7.463-28.787-19.022-6.299-14.724-21.505-92.121-30.008-136.945-6.861-36.168-22.82-122.423-22.82-142.154 0-45.003 36.612-81.615 81.614-81.615 45.003 0 81.615 36.612 81.615 81.615 0 19.731-15.959 105.986-22.82 142.154-8.502 44.824-23.708 122.221-30.007 136.944z m-28.787-300.714c-11.918 0-21.614 9.696-21.615 21.562 0.135 8.474 7.669 56.529 21.366 128.897l0.25 1.316 0.249-1.316c13.689-72.324 21.222-120.364 21.366-128.882-0.021-11.901-9.71-21.577-21.616-21.577z"  horiz-adv-x="1024" />

    
    <glyph glyph-name="bianyin" unicode="&#59008;" d="M803.6 745.502H220.4c-65.286 0-118.4-53.114-118.4-118.4v-486.203c0-65.286 53.114-118.4 118.4-118.4h583.2c65.286 0 118.4 53.114 118.4 118.4V627.102c0 65.286-53.114 118.4-118.4 118.4zM862 140.898c0-32.202-26.198-58.4-58.4-58.4H220.4c-32.202 0-58.4 26.198-58.4 58.4V627.102c0 32.202 26.198 58.4 58.4 58.4h583.2c32.202 0 58.4-26.198 58.4-58.4v-486.204zM751.548 413.937H645.513c-20.091 0-37.97-12.023-45.55-30.63l-24.395-59.893-84.286 207.742c-4.911 12.101-16.518 19.917-29.576 19.917h-0.017c-13.063-0.007-24.671-7.836-29.57-19.943l-47.507-117.372-112.139 0.084h-0.023c-16.557 0-29.987-13.417-30-29.978-0.012-16.569 13.409-30.01 29.978-30.022l119.438-0.09a0.397 0.397 0 0 1 0.035-0.001c20.139 0 38.033 12.061 45.59 30.731l24.245 59.901 84.205-207.543c4.908-12.088 16.509-19.903 29.555-19.912h0.021c13.037 0 24.639 7.8 29.56 19.878l47.71 117.132h98.761c16.568 0 30 13.431 30 30 0 16.567-13.432 29.999-30 29.999z"  horiz-adv-x="1024" />

    
    <glyph glyph-name="gaoqing" unicode="&#59014;" d="M779-1H245c-65.065 0-118 52.935-118 118V651c0 65.065 52.935 118 118 118h534c65.065 0 118-52.935 118-118v-534c0-65.065-52.935-118-118-118zM245 709c-31.981 0-58-26.019-58-58v-534c0-31.981 26.019-58 58-58h534c31.981 0 58 26.019 58 58V651c0 31.981-26.019 58-58 58H245zM485.8 249.653h-66.028V356.107h-70.071v-106.454h-66.028V518.347h66.028v-103.488h70.071V518.347H485.8zM712.184 491.936c-18.326 18.596-44.469 26.411-72.497 26.411H540.24v-268.694h99.447c28.028 0 54.17 7.815 72.497 26.411 31.531 31.263 28.028 65.759 28.028 107.801 0 42.312 3.503 76.81-28.028 108.071z m-45.277-168.439c-5.93-8.894-15.092-15.092-31.533-15.092h-29.105V459.596h29.105c16.441 0 25.603-6.198 31.533-15.092 5.389-7.545 7.276-15.092 7.276-60.638s-1.887-52.822-7.276-60.369z"  horiz-adv-x="1024" />

    
    <glyph glyph-name="shipin" unicode="&#59024;" d="M445.528 221.38400000000001c-6.971 0-13.983 1.603-20.523 4.855-15.724 7.821-25.491 23.59-25.491 41.151V500.609c0 17.562 9.768 33.33 25.492 41.152 15.232 7.577 33.04 6.197 46.871-3.527L658.24 421.453l1.051-0.795c11.589-8.766 18.235-22.127 18.235-36.658 0-14.53-6.647-27.892-18.236-36.656l-1.051-0.795-186.363-116.783c-7.893-5.55-17.083-8.382-26.348-8.382z m13.986 253.79v-182.348L605.012 384l-145.498 91.174zM803.6 22.498000000000047H220.4c-65.286 0-118.4 53.114-118.4 118.4V627.102c0 65.286 53.114 118.4 118.4 118.4h583.2c65.286 0 118.4-53.114 118.4-118.4v-486.203c0-65.287-53.114-118.401-118.4-118.401zM220.4 685.502c-32.202 0-58.4-26.198-58.4-58.4v-486.203c0-32.202 26.198-58.4 58.4-58.4h583.2c32.202 0 58.4 26.198 58.4 58.4V627.102c0 32.202-26.198 58.4-58.4 58.4H220.4z"  horiz-adv-x="1024" />

    
    <glyph glyph-name="shipinbiangeng" unicode="&#59025;" d="M803.6 745.502H220.4c-65.286 0-118.4-53.114-118.4-118.4v-486.203c0-65.286 53.114-118.4 118.4-118.4h583.2c65.286 0 118.4 53.114 118.4 118.4V627.102c0 65.286-53.114 118.4-118.4 118.4zM862 140.898c0-32.202-26.198-58.4-58.4-58.4H220.4c-32.202 0-58.4 26.198-58.4 58.4V627.102c0 32.202 26.198 58.4 58.4 58.4h583.2c32.202 0 58.4-26.198 58.4-58.4v-486.204zM711.275 341.143H320.394c-16.568 0-30-13.432-30-30s13.432-30 30-30h322.939l-45.369-45.229c-11.733-11.698-11.763-30.693-0.065-42.427 5.861-5.879 13.553-8.819 21.246-8.819 7.662 0 15.326 2.918 21.181 8.754l93.492 93.205c9.179 9.156 11.908 22.814 6.954 34.795s-16.533 19.721-29.497 19.721zM703.606 426.857c16.568 0 30 13.432 30 30s-13.432 30-30 30H380.667l45.369 45.23c11.734 11.698 11.763 30.692 0.065 42.426-11.697 11.733-30.692 11.764-42.426 0.065l-93.483-93.197c-9.184-9.154-11.918-22.813-6.965-34.797s16.531-19.728 29.499-19.728h390.88z"  horiz-adv-x="1024" />

    
    <glyph glyph-name="shipindaofang" unicode="&#59026;" d="M452.09 192.297c8.729 0 17.385 2.655 24.833 7.861l156.461 98.045 1.117 0.699 1.051 0.795c10.966 8.294 17.254 20.937 17.254 34.687 0 13.749-6.288 26.391-17.254 34.686l-1.051 0.795-157.578 98.744c-13.074 9.138-29.876 10.419-44.251 3.269-14.878-7.401-24.121-22.322-24.121-38.939V235.83c0-16.617 9.242-31.538 24.12-38.938 6.187-3.079 12.823-4.595 19.419-4.595z m16.46 210.75l109.576-68.665-109.576-68.663V403.047zM794 667.434H423.742a30.555 30.555 0 0 1-1.717 0.052H214.652l47.968 47.968c11.715 11.716 11.715 30.711 0 42.427-11.716 11.716-30.711 11.716-42.427 0L121.012 658.7c-0.055-0.055-0.105-0.113-0.16-0.168-0.291-0.296-0.579-0.595-0.858-0.903-0.174-0.191-0.337-0.388-0.505-0.583-0.151-0.175-0.305-0.347-0.451-0.526-0.196-0.239-0.383-0.483-0.57-0.726-0.109-0.141-0.221-0.28-0.327-0.423-0.197-0.265-0.385-0.535-0.572-0.804-0.089-0.128-0.181-0.255-0.268-0.385-0.185-0.276-0.362-0.557-0.537-0.838-0.083-0.133-0.169-0.265-0.25-0.4a28.65 28.65 0 0 1-0.477-0.83c-0.085-0.151-0.171-0.301-0.253-0.454-0.141-0.262-0.274-0.527-0.406-0.793-0.089-0.177-0.178-0.354-0.264-0.533-0.115-0.242-0.223-0.486-0.33-0.731-0.093-0.211-0.187-0.421-0.276-0.634-0.09-0.216-0.173-0.434-0.257-0.652-0.095-0.246-0.19-0.491-0.279-0.74-0.068-0.191-0.131-0.383-0.195-0.576a30.21 30.21 0 0 1-0.27-0.837c-0.051-0.169-0.097-0.34-0.145-0.51-0.086-0.303-0.17-0.606-0.246-0.913-0.039-0.158-0.073-0.317-0.11-0.475-0.073-0.317-0.146-0.635-0.209-0.956-0.031-0.159-0.057-0.32-0.086-0.48-0.057-0.318-0.115-0.636-0.162-0.958-0.027-0.183-0.046-0.366-0.07-0.55-0.038-0.298-0.078-0.594-0.107-0.894-0.024-0.247-0.038-0.495-0.056-0.742-0.017-0.239-0.04-0.477-0.052-0.718-0.023-0.466-0.034-0.932-0.035-1.399l-0.002-0.083 0.002-0.083c0-0.102 0.006-0.204 0.007-0.306-0.101-7.807 2.821-15.645 8.777-21.602l99.181-99.181c5.858-5.857 13.536-8.787 21.213-8.787s15.355 2.929 21.213 8.787c11.715 11.716 11.715 30.711 0 42.427l-48.746 48.746H326.97c0.569-0.032 1.141-0.052 1.717-0.052H794c31.981 0 58-26.019 58-58v-430.102c0-31.981-26.019-58-58-58H230c-31.981 0-58 26.019-58 58v331.32c0 16.568-13.432 30-30 30s-30-13.432-30-30v-331.32c0-65.065 52.935-118 118-118h564c65.065 0 118 52.935 118 118V549.434c0 65.066-52.935 118-118 118z"  horiz-adv-x="1024" />

    
    <glyph glyph-name="shipinfenge" unicode="&#59027;" d="M511.866 199.705c-16.568 0-30 13.432-30 30V538.294c0 16.568 13.432 30 30 30 16.569 0 30-13.432 30-30v-308.589c-0.001-16.568-13.431-30-30-30zM317.316 59.775h-80.61C173.457 59.775 122 111.232 122 174.481V593.519c0 63.249 51.457 114.706 114.706 114.706h80.61c63.249 0 114.706-51.457 114.706-114.706v-419.038c0-63.249-51.457-114.706-114.706-114.706z m-80.61 588.45c-30.165 0-54.706-24.541-54.706-54.706v-419.038c0-30.165 24.541-54.706 54.706-54.706h80.61c30.165 0 54.706 24.541 54.706 54.706V593.519c0 30.165-24.541 54.706-54.706 54.706h-80.61zM787.294 59.775h-80.61c-63.249 0-114.706 51.457-114.706 114.706V593.519c0 63.249 51.457 114.706 114.706 114.706h80.61c63.249 0 114.706-51.457 114.706-114.706v-419.038c0-63.249-51.457-114.706-114.706-114.706z m-80.61 588.45c-30.165 0-54.706-24.541-54.706-54.706v-419.038c0-30.165 24.541-54.706 54.706-54.706h80.61c30.165 0 54.706 24.541 54.706 54.706V593.519c0 30.165-24.541 54.706-54.706 54.706h-80.61z"  horiz-adv-x="1024" />

    
    <glyph glyph-name="shipinjianji" unicode="&#59028;" d="M633.792 426.358l-1.051 0.795-153.019 95.888c-12.954 9.046-29.595 10.311-43.838 3.227-14.744-7.334-23.903-22.121-23.903-38.588v-191.39c0-16.468 9.16-31.255 23.904-38.589 6.132-3.051 12.707-4.553 19.243-4.553 8.643 0 17.218 2.629 24.593 7.779l151.903 95.188 1.117 0.699 1.051 0.796c10.867 8.22 17.1 20.749 17.1 34.375s-6.233 26.154-17.1 34.373z m-161.811-99.474v130.2l103.889-65.101-103.889-65.099zM892 122.792h-58.792V612.245c0 51.26-41.703 92.964-92.964 92.964H250.792V764c0 16.569-13.431 30-30 30s-30-13.431-30-30v-58.792H132c-16.569 0-30-13.431-30-30s13.431-30 30-30h58.792v-489.453c0-51.261 41.704-92.964 92.964-92.964h489.453V4c0-16.568 13.432-30 30-30s30 13.432 30 30v58.792H892c16.568 0 30 13.432 30 30s-13.432 30-30 30z m-608.245 0c-18.176 0-32.964 14.787-32.964 32.964V645.208h489.453c18.177 0 32.964-14.788 32.964-32.964v-489.453H283.755z"  horiz-adv-x="1024" />

    
    <glyph glyph-name="shipinyasuo" unicode="&#59029;" d="M804 725.232H666.033c-16.568 0-30-13.432-30-30s13.432-30 30-30H804c31.981 0 58-26.019 58-58v-446.463c0-31.981-26.019-58-58-58H666.033c-16.568 0-30-13.432-30-30s13.432-30 30-30H804c65.065 0 118 52.935 118 118V607.232c0 65.066-52.935 118-118 118zM357.967 102.769H220c-31.981 0-58 26.019-58 58V607.232c0 31.981 26.019 58 58 58h137.967c16.568 0 30 13.432 30 30s-13.432 30-30 30H220c-65.065 0-118-52.935-118-118v-446.463c0-65.065 52.935-118 118-118h137.967c16.568 0 30 13.432 30 30s-13.432 30-30 30zM293.9 384c0-16.568 13.432-30 30-30h376.2c16.568 0 30 13.432 30 30s-13.432 30-30 30H323.9c-16.568 0-30-13.431-30-30zM489.977 470.614c0.259-0.279 0.518-0.559 0.789-0.83a29.86 29.86 0 0 1 16.699-8.443c0.475-0.072 0.95-0.132 1.427-0.181l0.071-0.008c1.003-0.101 2.009-0.154 3.016-0.154h0.042c0.495 0 0.99 0.013 1.485 0.038 0.231 0.011 0.458 0.033 0.688 0.049 0.258 0.019 0.516 0.034 0.773 0.059 0.293 0.029 0.584 0.068 0.875 0.105 0.19 0.024 0.38 0.044 0.57 0.072 0.316 0.046 0.629 0.103 0.942 0.159 0.165 0.03 0.33 0.056 0.495 0.088 0.317 0.062 0.63 0.134 0.943 0.206 0.163 0.038 0.326 0.072 0.488 0.113 0.303 0.075 0.603 0.159 0.902 0.243 0.174 0.049 0.348 0.096 0.521 0.148 0.278 0.084 0.552 0.175 0.827 0.267 0.196 0.065 0.392 0.129 0.586 0.198 0.245 0.087 0.486 0.181 0.728 0.275 0.222 0.086 0.444 0.171 0.665 0.262 0.21 0.087 0.417 0.179 0.624 0.271 0.248 0.109 0.495 0.218 0.74 0.334 0.177 0.084 0.35 0.172 0.525 0.26 0.268 0.134 0.536 0.268 0.802 0.411 0.15 0.08 0.297 0.165 0.445 0.248 0.281 0.157 0.561 0.315 0.838 0.482 0.133 0.08 0.263 0.164 0.394 0.247 0.282 0.176 0.564 0.353 0.841 0.539 0.131 0.088 0.258 0.18 0.387 0.27 0.269 0.187 0.537 0.373 0.801 0.57 0.148 0.11 0.291 0.226 0.437 0.338 0.238 0.184 0.476 0.366 0.71 0.558 0.191 0.157 0.376 0.322 0.563 0.483 0.182 0.157 0.367 0.31 0.546 0.473 0.365 0.331 0.722 0.669 1.07 1.018l0.004 0.004c0.287 0.287 0.565 0.583 0.84 0.881l91.674 91.674c11.716 11.716 11.716 30.711 0 42.427-11.715 11.716-30.711 11.716-42.426 0l-41.301-41.301V713.738c0 16.568-13.432 30-30 30s-30-13.432-30-30v-150.315l-41.341 41.342c-11.716 11.716-30.711 11.716-42.427 0-11.715-11.716-11.715-30.711 0-42.427l91.722-91.724zM534.083 297.326a30.332 30.332 0 0 1-1.929 1.917c-0.163 0.148-0.331 0.286-0.496 0.43-0.203 0.176-0.404 0.355-0.612 0.526-0.224 0.184-0.453 0.359-0.681 0.535-0.155 0.12-0.307 0.243-0.465 0.36-0.258 0.192-0.521 0.375-0.784 0.558-0.134 0.093-0.266 0.189-0.402 0.28-0.275 0.184-0.554 0.36-0.833 0.534-0.134 0.084-0.266 0.169-0.401 0.251a29 29 0 0 1-0.835 0.48c-0.149 0.083-0.297 0.168-0.447 0.249a27.72 27.72 0 0 1-0.805 0.412c-0.172 0.086-0.344 0.173-0.518 0.256a27.832 27.832 0 0 1-0.75 0.339c-0.204 0.09-0.407 0.181-0.613 0.266a28.269 28.269 0 0 1-0.681 0.268c-0.236 0.091-0.471 0.182-0.709 0.268-0.203 0.072-0.407 0.139-0.611 0.207a27.598 27.598 0 0 1-0.8 0.258c-0.184 0.056-0.369 0.105-0.554 0.157a28.385 28.385 0 0 1-0.867 0.234c-0.177 0.044-0.354 0.082-0.531 0.123-0.298 0.068-0.597 0.137-0.898 0.197-0.184 0.036-0.368 0.066-0.552 0.099-0.294 0.052-0.589 0.106-0.886 0.15-0.214 0.032-0.428 0.055-0.643 0.082-0.267 0.033-0.533 0.07-0.802 0.096-0.297 0.029-0.594 0.047-0.891 0.068-0.19 0.013-0.378 0.031-0.569 0.041a30.082 30.082 0 0 1-3.038-0.002l-0.014-0.001c-0.499-0.025-0.997-0.064-1.495-0.114l-0.115-0.014a29.31 29.31 0 0 1-1.382-0.176c-0.036-0.005-0.071-0.012-0.106-0.018-0.464-0.072-0.926-0.154-1.387-0.248l-0.018-0.004a29.856 29.856 0 0 1-15.194-8.174c-0.269-0.269-0.526-0.546-0.783-0.823l-91.732-91.733c-11.716-11.716-11.715-30.711 0-42.426 5.858-5.858 13.535-8.787 21.213-8.787s15.355 2.929 21.213 8.787l41.341 41.342V54.26c0-16.568 13.432-30 30-30s30 13.432 30 30V204.537l41.301-41.301c5.858-5.858 13.534-8.787 21.213-8.787 7.677 0 15.355 2.93 21.213 8.787 11.716 11.715 11.716 30.71 0 42.426l-91.665 91.664z"  horiz-adv-x="1024" />

    
    <glyph glyph-name="texiao" unicode="&#59031;" d="M570.362 176.462a51.31 51.31 0 0 0-8.03 0.635c-19.09 3.023-34.513 16.367-40.249 34.823l-41.51 133.536a10.813 10.813 0 0 1-7.116 7.117l-133.537 41.51c-18.456 5.737-31.8 21.16-34.824 40.249-3.023 19.09 4.901 37.881 20.681 49.041l114.174 80.743a10.81 10.81 0 0 1 4.569 8.968l-1.788 139.827c-0.247 19.327 10.298 36.783 27.52 45.557 17.222 8.773 37.542 7.043 53.031-4.516l112.072-83.634a10.806 10.806 0 0 1 9.939-1.574l132.432 44.909c18.309 6.205 38.166 1.571 51.831-12.094 13.667-13.667 18.302-33.527 12.095-51.831l-44.909-132.431a10.809 10.809 0 0 1 1.574-9.94l83.634-112.073c11.56-15.49 13.29-35.811 4.515-53.032-8.673-17.022-25.831-27.521-44.892-27.521-0.222 0-0.443 0.002-0.666 0.005l-139.827 1.787c-3.566-0.004-6.911-1.663-8.966-4.569L611.372 197.78c-9.586-13.557-24.808-21.317-41.01-21.318z m-194.07 269.146l114.975-35.74a70.802 70.802 0 0 0 46.602-46.602l35.739-114.974 69.52 98.303c13.458 19.032 35.464 30.229 58.72 29.92l120.393-1.538-72.008 96.494a70.803 70.803 0 0 0-10.311 65.095l38.667 114.022-114.023-38.667a70.798 70.798 0 0 0-65.094 10.31l-96.495 72.009 1.539-120.391a70.804 70.804 0 0 0-29.921-58.722l-98.303-69.519z m408.539 223.389l-0.012-0.035 0.012 0.035zM202.764 3.984c-18.134 0-36.268 6.902-50.072 20.706v0.001c-27.61 27.609-27.61 72.535 0 100.146l203.617 203.617c13.343 13.344 31.126 20.692 50.073 20.692s36.73-7.349 50.073-20.692c27.61-27.61 27.61-72.535 0-100.146L252.837 24.691c-13.805-13.804-31.939-20.707-50.073-20.707z m-7.646 63.134c4.145-4.145 11.147-4.144 15.294 0l203.616 203.616c4.145 4.146 4.145 11.148 0 15.294-2.713 2.713-5.955 3.118-7.646 3.118s-4.934-0.405-7.646-3.118L195.118 82.411c-4.145-4.144-4.145-11.148 0-15.293z"  horiz-adv-x="1024" />

    
    <glyph glyph-name="texiaoshipin" unicode="&#59032;" d="M753.375 308.452l-1.051 0.796-153.947 96.468c-12.978 9.066-29.652 10.334-43.921 3.237-14.773-7.348-23.95-22.162-23.95-38.661v-192.554c0-16.497 9.176-31.311 23.946-38.659 6.144-3.057 12.732-4.562 19.281-4.562 8.661 0 17.251 2.634 24.642 7.795l152.832 95.771 1.117 0.699 1.051 0.796c10.887 8.234 17.131 20.786 17.131 34.437 0 13.651-6.244 26.203-17.131 34.437zM590.506 208.188V339.841l105.048-65.826-105.048-65.827zM804 745.502H220c-65.065 0-118-52.935-118-118v-487.004c0-65.065 52.935-118 118-118h584c65.065 0 118 52.935 118 118V627.502c0 65.065-52.935 118-118 118z m58-605.004c0-31.981-26.019-58-58-58H220c-31.981 0-58 26.019-58 58V627.502c0 31.981 26.019 58 58 58h584c31.981 0 58-26.019 58-58v-487.004zM422.76 534.015l14.616 43.099v0.001c3.992 11.773 1.01 24.548-7.782 33.338-8.791 8.789-21.563 11.768-33.333 7.775l-43.1-14.616-36.471 27.218c-9.962 7.437-23.032 8.551-34.11 2.907s-17.86-16.873-17.7-29.302l0.582-45.506-37.154-26.276c-10.15-7.176-15.249-19.261-13.306-31.54 1.943-12.279 10.525-22.2 22.399-25.892l43.458-13.509 13.509-43.459c3.69-11.871 13.61-20.453 25.889-22.397 1.729-0.274 3.455-0.408 5.164-0.408 10.421 0 20.211 4.991 26.377 13.71l26.277 37.157 45.504-0.582c0.145-0.002 0.287-0.002 0.43-0.002 12.258 0 23.294 6.752 28.873 17.701 5.645 11.077 4.532 24.147-2.903 34.109l-27.219 36.474z m-49.388-37.636a39.783 39.783 0 0 1-33.036-16.834l-8.794-12.435-4.521 14.542a39.833 39.833 0 0 1-26.22 26.221l-14.544 4.521 12.433 8.793a39.832 39.832 0 0 1 16.836 33.039l-0.195 15.23 12.209-9.111a39.844 39.844 0 0 1 36.621-5.799l14.423 4.891-4.89-14.42a39.83 39.83 0 0 1 5.8-36.626l9.109-12.207-15.231 0.195z"  horiz-adv-x="1024" />

    
    <glyph glyph-name="tiaojiecanshu" unicode="&#59033;" d="M274.712 651.028v37.638c0 16.568-13.432 30-30 30s-30-13.432-30-30v-37.672C172.664 638.108 142 598.925 142 552.711s30.664-85.397 72.712-98.282v-375.095c0-16.568 13.432-30 30-30s30 13.432 30 30V454.395c42.108 12.849 72.829 52.06 72.829 98.317s-30.72 85.467-72.829 98.316z m-28.067-141.039a30.18 30.18 0 0 1-1.933 0.069c-0.64 0-1.273-0.027-1.904-0.066C220.133 511.02 202 529.786 202 552.711c0 23.583 19.187 42.771 42.771 42.771s42.771-19.187 42.771-42.771c-0.001-22.954-18.18-41.737-40.897-42.722zM542.023 318.669V688.666c0 16.568-13.432 30-30 30-16.568 0-30-13.432-30-30v-369.983c-42.09-12.86-72.793-52.063-72.793-98.306s30.703-85.446 72.793-98.306v-42.737c0-16.568 13.432-30 30-30 16.569 0 30 13.432 30 30v42.75c42.066 12.875 72.747 52.066 72.747 98.293s-30.68 85.418-72.747 98.292zM512 177.606c-23.583 0-42.771 19.187-42.771 42.771 0 22.966 18.196 41.754 40.927 42.724 0.618-0.038 1.239-0.064 1.866-0.064 0.623 0 1.241 0.025 1.855 0.063 22.715-0.987 40.893-19.768 40.893-42.723 0.001-23.584-19.186-42.771-42.77-42.771zM882 463.552c0 46.197-30.642 85.369-72.667 98.269V688.666c0 16.568-13.432 30-30 30s-30-13.432-30-30v-126.783c-42.132-12.835-72.874-52.057-72.874-98.33s30.742-85.496 72.874-98.331v-285.887c0-16.568 13.432-30 30-30s30 13.432 30 30V365.283c42.025 12.9 72.667 52.072 72.667 98.269z m-102.517-42.764c-0.05 0-0.1 0.004-0.15 0.004-0.085 0-0.169-0.006-0.254-0.006-23.515 0.082-42.62 19.234-42.62 42.767 0 23.583 19.187 42.771 42.771 42.771S822 487.136 822 463.552c0-23.498-19.05-42.626-42.517-42.764z"  horiz-adv-x="1024" />

    
    <glyph glyph-name="wuguanggao" unicode="&#59036;" d="M905.576 769.461c-12.752 13.021-33.646 13.238-46.666 0.486l-41.61-40.752c-14.146 5.989-29.69 9.302-45.993 9.302H252.692c-65.263 0-118.358-53.095-118.358-118.358V147.86c0-24.887 7.728-48 20.9-67.079l-36.325-35.576c-13.021-12.752-13.238-33.646-0.486-46.666 6.463-6.6 15.017-9.91 23.578-9.91 8.33 0 16.667 3.135 23.088 9.424l41.609 40.751c14.146-5.989 29.69-9.302 45.993-9.302h518.615c65.263 0 118.357 53.096 118.357 118.358V620.14c0 24.887-7.728 48-20.9 67.079l36.325 35.576c13.023 12.752 13.241 33.645 0.488 46.666zM194.334 147.86V620.14c0 32.179 26.179 58.358 58.358 58.358h512.843l-151.41-148.289h-74.328v-72.795L466.4 385.53l-52.629 144.679H362.37l-98.615-271.096h69.678l13.326 40.359h31.773l-179.103-175.41a57.978 57.978 0 0 0-5.095 23.798z m473.395 307.722c5.331-7.615 7.234-15.23 7.234-60.921 0-46.071-1.903-53.306-7.234-60.92-6.092-9.139-15.229-15.23-31.982-15.23h-29.318v111.78l40.299 39.468c10.051-2.113 16.399-7.273 21.001-14.177z m-255.101-100.52h-47.213l24.368 72.344 22.845-72.344zM829.665 620.14v-472.28c0-32.179-26.179-58.358-58.357-58.358H258.465l181.659 177.913 2.585-8.302h69.678l-21.209 58.303 48.62 47.617v-105.92h100.519c28.176 0 54.448 7.996 73.104 26.652 31.603 31.603 28.176 66.251 28.176 108.896s3.427 77.293-28.176 108.896c-5.459 5.459-11.575 9.999-18.195 13.7l129.348 126.681a58.024 58.024 0 0 0 5.091-23.798z"  horiz-adv-x="1024" />

    
    <glyph glyph-name="play" unicode="&#58988;" d="M512-118.61800803999995C233.95985002-118.61800803999995 9.38199196 105.97997888999998 9.38199196 384 9.38199196 662.04014998 233.97997889 886.61800804 512 886.61800804 790.04014998 886.61800804 1014.61800804 662.02002111 1014.61800804 384c0-278.04014998-224.57785805-502.61800804-502.61800804-502.61800804z m0 876.89430927C315.94475778 758.27630123 137.72369877 580.0552422200001 137.72369877 384c0-196.05524222 178.221059-374.27630123 374.27630123-374.27630123 196.05524222 0 374.27630123 178.221059 374.27630123 374.27630123 0 196.05524222-178.221059 374.27630123-374.27630123 374.27630123z m-49.91960993-563.20592171c-42.75373045-24.95980496-92.6532115 3.58293974-92.65321149 53.48242079V519.4471996899999c0 49.91960993 49.89948105 78.42209688 92.67334037 57.04523167l224.55772918-135.46732856a63.60724491 63.60724491 0 0 0 0-110.50752359l-224.55772918-135.44719969z"  horiz-adv-x="1024" />

    
    <glyph glyph-name="bilibili" unicode="&#59060;" d="M903.37994394 739.90404113h-194.68184359l91.74184916 93.58746943s14.03915708 19.41011982-7.48616841 43.9838288c0 0-19.18200995 21.27647738-44.93774581 0.93317878l-139.43765578-138.50447701h-134.79249918L332.5026033 880.27487666s-21.96080898 13.9769453-42.11747125-1.86635852c0 0-18.66357641-13.58293632-11.21888351-39.40088399l93.58746946-101.9238666-224.62651629 0.93317878S31.62500823 727.25428357 10.55590348 569.5677966200001v-460.36822777s8.44008445-146.46760343 146.94456146-169.38232846h59.8893444s-2.34331557-54.74649155 58.06446137-58.06446139c0 0 52.40317598-6.09676888 60.82252319 58.06446139l407.11482206-0.93317877s3.73271509-55.70040855 59.8893444-58.06446139c0 0 58.06446139 0.45622076 58.95616563 59.88934441h65.50915428s137.63351001 24.05527642 137.63351003 189.93299968l1.88709579 419.26688532s-4.79031842 185.08047047-163.88694215 189.99521149z m-13.1059783-692.6260733H203.35065225c-71.58518592-2.82027358-72.06214394 72.9953227-72.06214395 72.9953227v442.74151743c7.02994767 70.65200716 58.06446139 69.26260763 58.06446139 69.26260664h658.8035237c96.86396377 12.15206228 95.3916152-67.39625008 95.3916152-67.39624909l0.93317877-446.39128346c-2.26036651-64.57597553-54.20732173-71.12896517-54.20732174-71.12896418zM421.40344162 485.33285314L195.86448383 440.41584559l17.77187315-86.10130103 223.67259926 43.98382879zM661.00229276 485.33285314l-17.77187218-87.96765855 222.73942049-42.11747125 16.92164245 86.93079349zM506.57156388 221.42987745999994s-19.18200995-33.1796925-51.4699982-6.55298966c0 0-15.90551463 9.82948398-20.59214574 23.39168305l-38.3640189-24.32486182s51.46999721-92.17733265 131.01830859-36.49766134c0 0 9.35252597 14.97233585 21.52532549 0 0 0 65.03219628-61.29948119 131.95148834 36.49766134l-36.49766136 25.25804059s-20.59214673-27.12439813-29.03223119-29.94467171c0 0-15.90551463-15.44929388-40.2511137 4.68663112 0 0-19.63823069 20.11518871-28.0575769 40.23037646 0 0-8.89630521 19.65896795-17.79261042 0z"  horiz-adv-x="1075" />

    
    <glyph glyph-name="xunlei" unicode="&#58881;" d="M124.154411 689.289502L261.74916 667.790044 405.364419 530.195295 619.497288 691.009103 993.583529 895.682262 769.990949 472.576596 1154.398608 322.082935 582.518882 169.86713099999997 677.114716-127.68226200000004 576.498373-34.80602799999997 388.164598 67.52991599999996 171.451693 227.484559 100.074917 372.81941800000004 126.733177 623.931964 0.317738 667.790044 83.735532 672.089682Z"  horiz-adv-x="1155" />

    
    <glyph glyph-name="baidu" unicode="&#58895;" d="M627.99579687 520.395C609.09579688 480.075 569.34279687 447 522.72279688 447h-0.31500001c-0.378 0-0.693-0.252-1.071-0.252 0.252 0.252 0.441 0.63 0.756 0.882-3.15-0.63-6.3-0.63-10.08-0.63-69.3 0-126 56.7-125.99999999 126s56.7 126 126 126 126-56.7 126-126c0-18.9-3.78-36.54-11.34-52.29M260.01279687 132c-69.3 0-126 56.7-125.99999999 126s56.7 126 126 126 126-56.7 126-126-56.7-126-126-126M764.1378125 540.24c-0.882 0.063-2.457 0.504-5.418 0.63 1.827 10.521 3.843 21.042 3.843 32.13 0 139.23-111.321 252-250.551 252s-252-112.77-252-252c0-22.05 3.15-43.47 8.19-63.63-2.52 0.63-5.67 0.63-8.19 0.63-139.23 0-252-112.77-252-252s112.77-252 252-252c238.833 0 342.531 367.794 441 406.98 110.25 43.848 189.63-56.511 189.63-154.98 0-34.65 28.035-63 62.685-63s64.197 28.35 64.197 63c0 146.16-111.006 267.75-253.386 282.24M953 132c-34.776 0-63-28.224-63-63s28.224-63 63-63 63 28.224 63 63-28.224 63-63 63"  horiz-adv-x="1026" />

    
    <glyph glyph-name="weiyun" unicode="&#58897;" d="M989.79573499 1.4948571899999479c10.80000042 8.84571385 21.20914294 18.06171412 31.18628657 27.77142868 94.69028558 92.28342867 146.83885748 218.71542854 146.83885649 356.02971371 0 14.29714323-0.53485721 28.4297147-1.58400013 42.3977144a239.36914279 239.36914279 0 0 0 89.89714319-186.99428573c0-141.07885706-101.39657161-231.14057106-266.37942807-239.18399958l0.04114195-0.02057146z m-524.18057052-0.63771454c-108.864 0-196.56 26.37257175-253.58400011 76.19657162-50.02971455 43.71428545-76.44342825 105.84-76.44342925 179.67085762 0 78.06857133 27.62742839 145.83085748 77.8834291 190.84114251a208.49142825 208.49142825 0 0 0 140.54399985 53.25942825c8.33142811 0 16.72457161-0.45257133 25.15885705-1.39885692 62.39314267-6.89142825 110.88-36.53485763 133.07657149-81.25714308 16.25142881-32.83200014 15.36685762-68.72914323-2.46857133-98.43428503-13.86514237-23.08114265-32.72914279-37.31657146-56.07771455-42.31542951-26.96914238-5.76000042-59.71885762 1.17257175-83.4582853 17.7325716l-59.20457189-102.52799944c49.57714323-31.26857146 111.33257133-42.82971427 167.41028587-30.81600013 55.83085692 11.9108568 101.72571412 45.48342881 132.68571454 97.07657105 38.46857175 63.97714281 41.06057189 143.11542852 7.07657148 211.76228587-36.30857146 73.23428602-106.41600014 123.71657189-195.03771426 141.53142839a253.58400014 253.58400014 0 0 0 60.60342783 83.04685693c52.86857133 48.05485748 127.09028588 74.50971413 209.04685789 74.5097151 97.67314267 0 187.85828545-39.37371442 253.91314265-110.92114293 66.3222853-71.79428618 102.85714294-168.91200014 102.85714295-273.51771497 0-105.11999958-39.4971432-201.51771412-111.14742911-271.29599929-75.97028545-74.01599986-180.61714323-113.14285763-302.58514221-113.14285762h-170.24914269z m666.71999989 578.55085706C1061.96030658 762.24685762 893.83002126 888 692.82659288 888c-111.43542867 0-213.94285762-37.37828588-288.61714351-105.30514281a375.51085719 375.51085719 0 0 1-106.08685664-168.15085677A324.16457161 324.16457161 0 0 1 134.57973511 535.61142839C59.02087805 467.93142811 17.3225926 368.88 17.3225926 256.72457189 17.3225926 147.75771454999995 57.76602142 54.85714281000003 134.20944967-11.999999730000013c78.91199958-68.93485692 193.4742856-105.40800014 331.4057148-105.40800013h499.67999945c244.71771385 0 409.12457119 143.89714237 409.12457119 358.10742811 0 156.85714308-101.41714308 290.40685733-242.04342781 338.70857148h-0.04114294z"  horiz-adv-x="1379" />

    
    <glyph glyph-name="kankan" unicode="&#59828;" d="M514.73066667 891.77600001C236.20266667 891.77600001 9.55733333 665.13066667 9.55733333 386.60266667s226.64533333-505.17333333 505.17333334-505.17333333 505.17333333 226.64533333 505.17333333 505.17333333c2.73066667 278.528-223.91466667 505.17333333-505.17333333 505.17333334z m101.03466666-128.34133334c-174.76266667 0-327.68-98.304-319.488-218.45333333 2.73066667-35.49866667 21.84533333-65.536 68.26666667-87.38133333v84.65066666c19.11466667 19.11466667 46.42133333 19.11466667 65.536 0 0 0 152.91733333-136.53333333 357.71733333-212.992 0 0 40.96-32.768 0-65.536L430.08 50.730666670000005c-19.11466667-19.11466667-46.42133333-19.11466667-65.536 0v81.92C211.62666667 189.99466667000002 102.4 318.33600001 102.4 468.52266667c2.73066667 210.26133333 196.608 374.10133333 436.90666667 374.10133334H585.728c191.14666667-21.84533333 338.60266667-136.53333333 379.56266667-289.45066667-40.96 120.14933333-180.224 210.26133333-349.52533334 210.26133333z"  horiz-adv-x="1024" />

    
    <glyph glyph-name="down" unicode="&#59011;" d="M1107.13629241 487.30518516a271.54328611 271.54328611 0 0 1-57.7222567 86.54504217 268.30058653 268.30058653 0 0 1-85.64672714 58.31383064q-12.05057503 5.15983781-24.62699431 9.12557264A410.90271469 410.90271469 0 0 1 824.96658859 794.56199592 401.67854705 401.67854705 0 0 1 311.53538721 795.95328891a411.07799545 411.07799545 0 0 1-116.8577176-157.09568372 291.91971375 291.91971375 0 0 1-106.04506501-67.63659427C36.82608531 519.35971608 8.34290724 451.20823463 8.34290724 379.35393899999997a266.26294308 266.26294308 0 0 1 24.49553303-111.90602587 276.91127002 276.91127002 0 0 1 64.54726425-88.41835899 293.96831232 293.96831232 0 0 1 144.68359206-72.30345314 56.26523208 56.26523208 0 0 1 16.12586093-2.66208173h1.10646211c31.39722633 0 56.85680602 25.72250133 56.85680601 57.44837995s-25.4595797 57.44837995-56.85680601 57.44837995h-0.92022622v1.9609567c-77.9453138 16.99131163-135.94144725 81.47284523-135.94144628 158.42124802 0 84.90178167 70.59446198 154.61983884 160.6779917 162.13501631 28.48317806 132.19481363 144.89173814 231.21767911 284.26212084 231.21767813 140.53162036 0 257.78371992-100.67708109 284.97420098-234.53706446q3.20983523 0.15337055 6.41967046 0.16432665c85.84391813 0 155.44146909-70.32058523 155.44146913-157.05186427 0-80.05964203-59.31074166-146.07488503-135.94144727-155.7810765v-0.86545069C847.30397392 224.09870578000005 822.30450687 198.62817197000004 822.30450687 167.20903442999997s24.95564662-56.96635711 55.94753589-57.42646973v-0.12050522l1.32556328 0.10955011a56.63770481 56.63770481 0 0 1 9.72810072 0.92022624 265.24412184 265.24412184 0 0 1 74.39587114 19.71912305 268.39918153 268.39918153 0 0 1 85.64672716 58.31383064A274.67643657 274.67643657 0 0 1 1107.13629241 487.30518516zM415.09365024 51.99457733999998l143.10606222-155.92349193a53.38404914 53.38404914 0 0 1 76.24727774 0L777.56400653 51.99457733999998c19.71912403 21.43906931 19.71912403 56.51719959-1e-8 77.96722402s-51.87224995 21.4281142-71.55850764 0l-56.67057016-61.75372219V328.86202791999995c0 30.32362955-22.76463263 55.12590563-50.6014622 55.12590463s-50.59050708-24.8132302-50.59050704-55.12590463v-265.93429178l-61.50175568 67.03406522c-19.71912403 21.4281142-51.87224995 21.4281142-71.55850866 0s-19.66434849-56.52815372 0.0109551-77.96722402z"  horiz-adv-x="1137" />

    
    <glyph glyph-name="paixu" unicode="&#58956;" d="M935.45 195a37.75517578 37.75517578 0 0 1-53.55 0L785.6 98.70000000000005V403.8l95.85-95.85 0.9-0.9c15.3-14.4 39.15-13.95 53.55 0.9 14.4 15.3 13.95 39.15-0.9 53.55L773.9 522.6a37.75517578 37.75517578 0 0 1-53.55 0L559.25 361.5a37.75517578 37.75517578 0 0 1 0-53.55 37.75253906 37.75253906 0 0 1 53.55 0L709.1 404.25v-305.1L613.25 195l-0.9 0.9c-15.3 14.4-39.15 13.95-53.55-0.9-14.4-15.3-13.95-39.15 0.9-53.55l161.1-161.1a37.75253906 37.75253906 0 0 1 53.55 0l161.1 161.1c14.85 14.4 14.85 38.7 0 53.55zM134 793.05h765.45c20.7 0 37.35-16.65 37.35-37.35s-16.65-37.35-37.35-37.35H134c-20.7 0-37.35 16.65-37.35 37.35S113.3 793.05 134 793.05z m4.5-243.9h252c23.4 0 41.85-18.9 41.85-41.85 0-23.4-18.9-41.85-41.85-41.85H138.5c-23.4 0-41.85 18.9-41.85 41.85s18.9 41.85 41.85 41.85z m0-496.35h252c23.4 0 41.85-18.9 41.85-41.85s-18.9-41.85-41.85-41.85H138.5c-23.4 0-41.85 18.9-41.85 41.85s18.9 41.85 41.85 41.85z m0 247.95h252c23.4 0 41.85-18.9 41.85-41.85s-18.9-41.85-41.85-41.85H138.5c-23.4 0-41.85 18.9-41.85 41.85 0 23.4 18.9 41.85 41.85 41.85z"  horiz-adv-x="1046" />

    
    <glyph glyph-name="danmu-kai" unicode="&#59041;" d="M503.72533333 78.91466666999997H165.03733333C81.37333333 78.91466666999997 13.33333333 146.95466667000005 13.33333333 230.61866667000004V654.98666667c0 83.664 68.04 151.704 151.704 151.704h545.832c83.664 0 151.704-68.04 151.704-151.704v-220.752h-60.48V654.98666667c0 50.4-40.824 90.72-90.72 90.72H165.03733333c-50.4 0-90.72-40.824-90.72-90.72v-424.368c0-50.4 40.824-90.72 90.72-90.72h338.688v-60.984zM802.59733333 356.11466667c-120.96 0-218.736-98.28-218.736-218.736s98.28-218.736 218.736-218.736 218.736 98.28 218.736 218.736-98.28 218.736-218.736 218.736z m132.048-166.824l-146.664-146.664c-4.032-4.032-9.072-5.544-14.112-5.544s-10.08 2.016-14.112 5.544l-71.568 71.568c-7.56 7.56-6.552 21.672 1.008 29.232s19.152 11.088 26.712 3.528l57.96-57.96 133.056 133.056c7.56 7.56 21.168 5.04 28.728-2.52 8.064-8.064 7.056-22.68-1.008-30.24zM179.65333333 564.26666667h60.48v-60.48H179.65333333V564.26666667z m120.96 0h363.888v-60.48H300.61333333V564.26666667z m60.984-181.944h207.648v-60.48H361.59733333v60.48z m-121.464 0h60.48v-60.48H240.13333333v60.48z"  horiz-adv-x="1024" />

    
    <glyph glyph-name="danmu-guan" unicode="&#59042;" d="M802.66013605-80.37068998999996c-120.27002796 0-217.89507156 97.62504362-217.89507157 217.89507156s97.62504362 217.89507156 217.89507157 217.89507158 217.89507156-97.62504362 217.89507157-217.89507158-98.12826549-217.89507156-217.89507157-217.89507156z m0 380.43573696c-89.57349363 0-163.04388727-72.96717177-163.04388727-163.04388727s72.96717177-163.04388727 163.04388727-163.04388727 163.04388727 72.96717177 163.04388727 163.04388727-73.47039364 163.04388727-163.04388727 163.04388727zM182.18756506 562.74686535h60.3866249v-60.38662492h-60.3866249v60.38662492z m120.77324982 0h362.3197495v-60.38662492h-362.3197495v60.38662492z m60.38662492-181.15987474h206.82419033v-60.38662492H363.3474398v60.38662492z m-120.77324984 0h60.38662492v-60.38662492h-60.38662492v60.38662492zM643.89363472 257.06473781l38.78330985 38.78330985 271.49826562-271.49826562-38.78330986-38.78330984zM503.74634272 80.15708790999997H165.5812432c-83.53483113 0-151.46978416 67.93495303-151.46978416 151.46978417V655.33969022c0 83.53483113 67.93495303 151.46978416 151.46978416 151.46978416h544.98928987c83.53483113 0 151.46978416-67.93495303 151.46978414-151.46978416v-220.41118094h-60.38662491V655.33969022c0 50.32218743-40.76097182 90.57993737-90.57993737 90.57993737H165.5812432c-50.32218743 0-90.57993737-40.76097182-90.57993737-90.57993737v-423.71281814c0-50.32218743 40.76097182-90.57993737 90.57993737-90.57993739h338.16509952v-60.88984678z"  horiz-adv-x="1025" />

    
    <glyph glyph-name="xiayiye" unicode="&#59273;" d="M711.2480467 366.07031225000003a35.02441372 35.02441372 0 0 0-10.54687474-24.34570279L360.82812483 8.926757560000055a35.15624992 35.15624992 0 0 0-49.21874958 50.22949219l315.39550739 308.84765615L310.46679722 708.00878923A35.15624992 35.15624992 0 1 0 361.97070287 755.9091799400001L701.84375 390.81152362c6.5039066-7.03124982 9.62402369-15.95214869 9.4042967-24.8291014z"  horiz-adv-x="1024" />

    
    <glyph glyph-name="shangyiye" unicode="&#59274;" d="M312.7519533 366.07031225000003a35.02441372 35.02441372 0 0 1 10.54687474-24.34570279l339.87304713-332.7978519a35.15624992 35.15624992 0 0 1 49.21874958 50.22949219L396.99511736 368.00390589999995l316.53808542 340.00488334A35.15624992 35.15624992 0 1 1 662.02929713 755.9091799400001L322.15625 390.81152362a35.02441372 35.02441372 0 0 1-9.4042967-24.8291014z"  horiz-adv-x="1024" />

    
    <glyph glyph-name="xiangxia" unicode="&#59275;" d="M852.21424901 169.98865853999996a37.61954988 37.61954988 0 0 0-26.14959929 11.32834628L468.60812375 546.37296307A37.76115422 37.76115422 0 0 0 522.55937281 599.2385789699999l331.73173969-338.76475466L1219.48867508 600.4658164699999a37.76115422 37.76115422 0 1 0 51.44957262-55.32009091L878.7886613 180.08976729000005a37.61954988 37.61954988 0 0 0-26.66881517-10.10110875z"  horiz-adv-x="1843" />

    
    <glyph glyph-name="xiangshang" unicode="&#59276;" d="M873.54758234 598.01134146a37.61954988 37.61954988 0 0 1-26.14959929-11.32834628L489.94145708 221.62703693000003a37.76115422 37.76115422 0 0 1 53.95124906-52.8656159l331.73173969 338.76475466 365.19756257-339.99199216a37.76115422 37.76115422 0 1 1 51.44957263 55.32009091L900.12199463 587.91023271A37.61954988 37.61954988 0 0 1 873.45317946 598.01134146z"  horiz-adv-x="1843" />

    
    <glyph glyph-name="kulian" unicode="&#59224;" d="M511.23809522-37.735537109999996c232.93078482 0 421.73553711 188.8047523 421.73553711 421.73553711C932.97363233 616.93078482 744.16888004 805.73553711 511.23809522 805.73553711 278.3073104 805.73553711 89.50255811 616.93078482 89.50255811 384c0-232.93078482 188.8047523-421.73553711 421.73553711-421.73553711z m0 62.47933861a359.25619851 359.25619851 0 1 0 0 718.51239701 359.25619851 359.25619851 0 0 0 0-718.51239701zM719.84098762 204.99669390999998c-116.40681818 116.40681818-303.2200417 118.82789241-417.2057848 4.8421493a31.23966973 31.23966973 0 1 1 44.20413177-44.16508258c89.30640534 89.30640534 236.562397 87.39297497 328.79752126-4.8421493a31.23966973 31.23966973 0 1 1 44.20413178 44.12603337zM364.80214443 458.50661133m-48.81198333 0a48.81198331 48.81198331 0 1 1 97.62396748 0 48.81198331 48.81198331 0 1 1-97.62396748 0ZM657.67404601 458.50661133m-48.81198415 0a48.81198331 48.81198331 0 1 1 97.62396748 0 48.81198331 48.81198331 0 1 1-97.62396748 0Z"  horiz-adv-x="1024" />

    
    <glyph glyph-name="putong" unicode="&#59225;" d="M512-37.42986637000001c232.76195833 0 421.42986637 188.66790803 421.42986637 421.42986637C933.42986637 616.76195833 744.76195833 805.42986637 512 805.42986637 279.23804167 805.42986637 90.57013363 616.76195833 90.57013363 384c0-232.76195833 188.66790803-421.42986637 421.42986637-421.42986637z m0 62.43405407a358.99581231 358.99581231 0 1 0 0 717.99162461 358.99581231 358.99581231 0 0 0 0-717.99162461zM365.67018488 465.28133459m-48.77660476 0a48.77660475 48.77660475 0 1 1 97.55321036 0 48.77660475 48.77660475 0 1 1-97.55321036 0ZM658.32981512 465.28133459m-48.7766056 0a48.77660475 48.77660475 0 1 1 97.55321036 0 48.77660475 48.77660475 0 1 1-97.55321036 0ZM349.39830994 157.67655351999997h325.20338012a31.21702746 31.21702746 0 1 1 0 62.43405405H349.39830994a31.21702746 31.21702746 0 1 1 0-62.43405405z"  horiz-adv-x="1024" />

    
    <glyph glyph-name="xiaolian" unicode="&#59226;" d="M512-37.42986637000001c232.76195833 0 421.42986637 188.66790803 421.42986637 421.42986637C933.42986637 616.76195833 744.76195833 805.42986637 512 805.42986637 279.23804167 805.42986637 90.57013363 616.76195833 90.57013363 384c0-232.76195833 188.66790803-421.42986637 421.42986637-421.42986637z m0 62.43405407a358.99581231 358.99581231 0 1 0 0 717.99162461 358.99581231 358.99581231 0 0 0 0-717.99162461zM305.96762084 231.85601419a291.37192703 291.37192703 0 0 1 412.06475832 0 31.21702746 31.21702746 0 1 1-44.1720938 44.13307204 228.93787297 228.93787297 0 0 0-323.72057072 0 31.21702746 31.21702746 0 1 1-44.1720938-44.13307204zM365.67018488 465.28133459m-48.77660476 0a48.77660475 48.77660475 0 1 1 97.55321036 0 48.77660475 48.77660475 0 1 1-97.55321036 0ZM658.32981512 465.28133459m-48.7766056 0a48.77660475 48.77660475 0 1 1 97.55321036 0 48.77660475 48.77660475 0 1 1-97.55321036 0Z"  horiz-adv-x="1024" />

    
    <glyph glyph-name="qq" unicode="&#60067;" d="M286.60857935 876.94712483c31.99035593 2.90821418 63.98071187-2.90821418 93.06285363-14.54107089 66.88892604-23.2657134 130.86963791-52.34785517 191.94213559-84.3382111 104.69571032-55.25606934 203.5749923-119.2367812 299.54606012-189.03392143 40.71499846-31.99035593 84.33821109-63.98071187 116.32856703-104.69571033 20.35749924-23.2657134 34.89857011-55.25606934 31.99035593-87.24642527-5.81642835-37.80678428-29.08214175-69.79714023-55.25606934-95.9710678-104.69571032-104.69571032-218.11606319-200.66677814-343.16927274-279.18856087-63.98071187-40.71499846-130.86963791-75.61356856-200.66677812-101.78749615-43.62321264-17.44928505-93.06285362-31.99035593-139.59428045-26.17392759-29.08214175 2.90821418-55.25606934 14.54107088-75.61356857 37.80678429-17.44928505 20.35749924-26.17392759 43.62321264-31.99035592 69.79714022v2.90821418c20.35749924 5.81642835 40.71499846 11.63285671 63.98071185 17.44928505 87.24642527 23.2657134 174.49285055 61.07249769 255.92284747 101.78749615 87.24642527 46.53142681 171.58463637 98.87928198 250.10641912 159.95177967 26.17392759 20.35749924 55.25606934 40.71499846 66.88892604 72.70535439 11.63285671 23.2657134 8.72464253 52.34785517-5.81642834 72.70535439-14.54107088 26.17392759-37.80678428 46.53142681-58.16428353 63.98071187-26.17392759 20.35749924-55.25606934 40.71499846-84.33821109 55.25606934-55.25606934 34.89857011-113.42035286 63.98071187-171.58463637 95.97106781-66.88892604 34.89857011-136.68606626 63.98071187-206.48320648 87.24642527-31.99035593 8.72464253-63.98071187 20.35749924-95.97106781 29.08214177 2.90821418 14.54107088 8.72464253 29.08214175 14.54107089 43.62321262 17.44928505 40.71499846 49.43964099 66.88892604 84.33821109 72.70535441zM91.75822958 757.71034361c29.08214175 14.54107088 63.98071187 11.63285671 95.97106779 5.81642835-11.63285671-43.62321264-17.44928505-90.15463945-23.2657134-133.77785208 0-20.35749924-2.90821418-37.80678428-5.81642834-58.16428352-2.90821418-23.2657134-2.90821418-49.43964099-5.81642837-72.70535439 0-29.08214175-2.90821418-55.25606934-2.90821417-84.3382111-2.90821418-26.17392759 0-55.25606934-2.90821417-81.42999692 0-40.71499846 0-81.42999692 2.90821417-122.14499538 2.90821418-61.07249769 5.81642835-125.05320956 14.54107088-186.12570726v-8.72464253c-29.08214175-5.81642835-63.98071187-11.63285671-90.15463944 8.72464253-26.17392759 20.35749924-34.89857011 55.25606934-43.62321265 87.24642528-14.54107088 95.9710678-23.2657134 200.66677814-23.2657134 305.36248845 0 55.25606934 5.81642835 107.60392451 14.54107088 159.95177968 5.81642835 43.62321264 14.54107088 87.24642527 29.08214176 127.96142372 5.81642835 23.2657134 20.35749924 43.62321264 40.71499846 52.34785517zM439.55961325 432.67846997h0.60764656c3.34205618-0.91146987 6.68411236-2.12676302 10.02616854-3.03823288 7.29175896-2.4305863 14.5835179-5.7726425 21.57145354-9.11469867 6.07646577-3.34205618 12.15293158-6.38028907 17.92557405-10.02616853 3.0382329-1.82293973 6.07646577-3.64587947 8.8108754-5.77264249 2.4305863-1.82293973 4.55734932-3.94970276 6.07646577-6.68411237 1.21529316-2.12676302 1.51911642-5.16499591 0.60764658-7.59558225-1.51911642-3.34205618-4.55734932-5.46881922-6.98793565-7.59558221-8.50705211-6.68411236-17.31792749-12.15293158-26.43262615-17.0141042-8.50705211-4.55734932-17.31792749-8.20322881-26.73644945-10.63381513-2.12676302-0.60764658-4.25352605-1.21529316-6.68411237-1.82293972-0.30382329 0-0.91146987-0.30382329-1.21529314-0.3038233 0 0.60764658 0 1.21529316-0.3038233 1.82293974-0.91146987 6.38028907-1.21529316 13.06440143-1.51911645 19.44469052-0.30382329 4.25352605-0.30382329 8.50705211-0.3038233 12.76057814 0 2.7344096 0 5.7726425 0.3038233 8.5070521 0 3.0382329 0.30382329 5.7726425 0.3038233 8.81087538 0.30382329 2.4305863 0.30382329 5.16499591 0.60764657 7.59558223 0.30382329 2.12676302 0.30382329 3.94970276 0.60764658 6.07646577 0.91146987 4.86117261 1.51911642 9.72234526 2.73440962 14.58351787m12.45675483-17.01410416c-1.21529316-0.30382329-1.82293973-1.82293973-1.82293973-3.0382329v-37.67408786c0-1.21529316 0.30382329-2.7344096 1.21529318-3.03823288 1.21529316-0.30382329 2.4305863 0 3.34205616 0.91146985l25.52115629 18.22939738c1.21529316 0.91146987 2.12676302 2.12676302 2.12676304 3.64587945s-1.21529316 2.4305863-2.43058634 3.34205618c-8.50705211 5.7726425-17.31792749 11.54528499-25.82497956 17.31792748-0.30382329 0-1.21529316 0.60764658-2.12676304 0.3038233zM306.96607859 603.57499229c8.72464253 2.90821418 17.44928505-2.90821418 23.2657134-5.81642836 81.42999692-55.25606934 165.76820802-110.51213867 247.19820494-165.76820801 11.63285671-5.81642835 23.2657134-17.44928505 23.2657134-31.99035593 0-14.54107088-8.72464253-26.17392759-20.35749923-34.89857011l-244.28999076-174.49285055c-8.72464253-5.81642835-20.35749924-11.63285671-31.99035593-8.72464253-11.63285671 5.81642835-14.54107088 20.35749924-11.6328567 29.08214177v142.50249461c-2.90821418 55.25606934 0 107.60392451 0 162.85999384-2.90821418 17.44928505-2.90821418 34.89857011 0 55.25606934-2.90821418 14.54107088 2.90821418 29.08214175 14.54107088 31.99035593z"  horiz-adv-x="1024" />

    
    <glyph glyph-name="letv" unicode="&#59783;" d="M467.61583068 445.02823281h338.42929102c47.15817989 0 83.22031746 38.83614814 83.22031746 83.22031746 0 47.15817989-38.83614814 83.22031746-83.22031746 83.22031746H467.61583068c-47.15817989 0-83.22031746-38.83614814-83.22031746-83.22031746s36.06213757-83.22031746 83.22031746-83.22031746zM720.05079365 248.07348148000005c0 47.15817989-38.83614814 83.22031746-83.22031746 83.22031746H270.66107937V811.1976296299999c0 47.15817989-38.83614814 83.22031746-83.22031747 83.22031746-47.15817989 0-83.22031746-38.83614814-83.22031746-83.22031746v-563.12414815c0-47.15817989 38.83614814-83.22031746 83.22031746-83.22031746h449.38971429c44.38416932 0 83.22031746 36.06213757 83.22031746 83.22031746z m83.22031746-196.95475132H467.61583068c-47.15817989 0-83.22031746-38.83614814-83.22031746-83.22031746 0-47.15817989 38.83614814-83.22031746 83.22031746-83.22031746h338.42929102c47.15817989 0 83.22031746 38.83614814 83.22031746 83.22031746 0 47.15817989-38.83614814 83.22031746-85.99432805 83.22031746z"  horiz-adv-x="1024" />

    
    <glyph glyph-name="sohu" unicode="&#59812;" d="M425.89914992 215.34015662000002c0-14.7947231 0-32.54839083 17.75366773-41.4252247 14.7947231-8.87683386 29.58944621-2.95894462 41.42522468 5.91788924 97.64517249 65.09678166 198.2492896 130.19356332 295.89446209 195.29034498 32.54839083 23.67155697 32.54839083 56.21994779 0 76.93256013-97.64517249 65.09678166-198.2492896 130.19356332-295.89446209 192.33140036-8.87683386 5.91788924-17.75366773 8.87683386-23.67155697 8.87683386-23.67155697 0-35.50733545-11.83577849-35.50733544-38.46628006v-71.01467091c-2.95894462-112.43989559-2.95894462-221.92084656 0-328.4428529zM79.70262929 369.20527689999994c2.95894462 0 2.95894462-2.95894462 2.95894461-5.91788925 0-17.75366773 2.95894462-76.93256014 68.05572629-133.15250793 0 17.75366773 2.95894462 65.09678166 23.67155695 106.52200634 0 2.95894462 2.95894462 2.95894462 5.91788924 2.95894462s2.95894462 0 5.91788925-2.95894462c5.91788924-11.83577849 38.46628008-68.05572627 103.56306174-100.60411709-94.68622786 162.74195414-41.42522469 372.82702222 124.27567406 470.4721947l11.83577849 5.91788924c-29.58944621 14.7947231-59.17889241 20.71261235-91.72728325 23.67155696-97.64517249 5.91788924-177.53667725-26.63050159-242.6334589-97.64517249l-8.87683387-8.87683385c-8.87683386-17.75366773-20.71261235-35.50733545-29.5894462-53.26100318-38.46628008-73.97361552-47.34311394-156.8240649-41.4252247-236.71556967 2.95894462-35.50733545 8.87683386-68.05572627 20.71261236-97.64517248 2.95894462 32.54839083 8.87683386 88.76833862 41.42522468 127.2346187h5.91788925zM1002.89335099 490.52200635c-56.21994779 254.46923738-295.89446208 414.25224691-535.56897639 390.58068995-139.07039718-14.7947231-254.46923738-73.97361552-343.237576-180.49562187-14.7947231-17.75366773-23.67155697-35.50733545-35.50733546-53.26100318C127.04574321 697.64812981 171.42991252 739.07335449 227.64986032 774.58068995c183.45456649 112.43989559 429.04697002 88.76833862 574.03525644-59.17889241 82.85044938-85.809394 124.27567408-192.33140035 127.2346187-310.68918519 0-147.94723103-100.60411711-281.09973897-242.63345891-322.52496367-142.0293418-41.42522469-301.81235132 14.7947231-381.70385609 136.11145256l-2.95894461 5.91788924c-68.05572627 32.54839083-106.52200635 88.76833862-115.39884022 106.52200635-29.58944621-50.30205855-26.63050159-109.48095097-26.63050159-109.48095097v-8.87683387l-5.91788925 5.91788925c-68.05572627 56.21994779-76.93256014 115.39884021-76.93256013 139.07039717C41.23634921 310.02638448000005 41.23634921 236.05276897 41.23634921 218.29910124000003c76.93256014-216.00295732 289.97657284-355.07335449 529.65108712-328.44285291 292.93551746 29.58944621 494.14375167 313.64812981 432.00591466 600.66575802z"  horiz-adv-x="1024" />

    
    <glyph glyph-name="shoucang-fill" unicode="&#59688;" d="M335.008-20.629332999999974c-35.914667-22.314667-82.88-10.773333-104.693333 25.557333a77.333333 77.333333 0 0 0-8.96 57.429333l46.485333 198.24a13.141333 13.141333 0 0 1-4.021333 12.864l-152.16 132.586667c-31.605333 27.52-35.253333 75.648-8.234667 107.733333a75.68 75.68 0 0 0 51.733333 26.752L354.848 556.8c4.352 0.362667 8.245333 3.232 10.026667 7.594667l76.938666 188.170666c16.032 39.2 60.618667 57.92 99.52 41.461334a76.309333 76.309333 0 0 0 40.832-41.461334l76.938667-188.16c1.781333-4.373333 5.674667-7.253333 10.026667-7.605333l199.712-16.277333c41.877333-3.413333 72.885333-40.458667 69.568-82.517334a76.938667 76.938667 0 0 0-26.08-51.978666l-152.16-132.586667c-3.541333-3.082667-5.141333-8.074667-4.021334-12.853333l46.485334-198.24c9.621333-41.013333-15.36-82.336-56.138667-92.224a75.285333 75.285333 0 0 0-57.525333 9.237333l-170.976 106.24a11.296 11.296 0 0 1-12.010667 0l-170.986667-106.24z"  horiz-adv-x="1024" />

    
    <glyph glyph-name="shuju-fill" unicode="&#59689;" d="M512 810.666667c235.637333 0 426.666667-191.029333 426.666667-426.666667S747.637333-42.66666699999996 512-42.66666699999996 85.333333 148.362667 85.333333 384 276.362667 810.666667 512 810.666667z m214.592-318.677334a32 32 0 0 1-45.248-0.064L544.736 354.93333299999995l-81.792 89.109334a32 32 0 0 1-46.613333 0.576l-119.36-123.733334a32 32 0 1 1 46.058666-44.437333l95.754667 99.264 81.418667-88.704a32 32 0 0 1 46.24-0.96l160.213333 160.693333a32 32 0 0 1-0.064 45.248z"  horiz-adv-x="1024" />

    
    <glyph glyph-name="wenda-fill" unicode="&#59690;" d="M512 810.666667c235.637333 0 426.666667-191.029333 426.666667-426.666667S747.637333-42.66666699999996 512-42.66666699999996a424.778667 424.778667 0 0 0-219.125333 60.501334 2786.56 2786.56 0 0 1-20.053334 11.765333l-104.405333-28.48c-23.893333-6.506667-45.802667 15.413333-39.285333 39.296l28.437333 104.288c-11.008 18.688-18.218667 31.221333-21.802667 37.909333A424.885333 424.885333 0 0 0 85.333333 384C85.333333 619.637333 276.362667 810.666667 512 810.666667z m0-586.666667a32 32 0 1 1 0-64 32 32 0 0 1 0 64z m-2.517333 373.333333c-48.416 0-92.746667-24.16-118.613334-63.413333a137.088 137.088 0 0 1-15.978666-33.237333 32 32 0 0 1 60.906666-19.690667c2.016 6.24 4.885333 12.202667 8.522667 17.717333C458.4 520.085333 482.709333 533.333333 509.482667 533.333333 552.277333 533.333333 586.666667 499.733333 586.666667 458.666667s-34.4-74.666667-77.194667-74.666667a32 32 0 0 1-32-32v-64a32 32 0 0 1 64 0v35.584C603.946667 337.80266700000004 650.666667 392.768 650.666667 458.666667c0 76.757333-63.381333 138.666667-141.194667 138.666666z"  horiz-adv-x="1024" />

    
    <glyph glyph-name="yanjing-fill" unicode="&#59691;" d="M512 704c156.448 0 296.021333-98.730667 418.410667-291.605333a52.938667 52.938667 0 0 0 0-56.789334C808.021333 162.73066700000004 668.448 64 512 64c-156.448 0-296.021333 98.730667-418.410667 291.605333a52.938667 52.938667 0 0 0 0 56.789334C215.978667 605.269333 355.552 704 512 704z m0-128c-106.037333 0-192-85.962667-192-192s85.962667-192 192-192 192 85.962667 192 192-85.962667 192-192 192z m0-320c70.688 0 128 57.312 128 128s-57.312 128-128 128-128-57.312-128-128 57.312-128 128-128z"  horiz-adv-x="1024" />

    
    <glyph glyph-name="yingchengka-fill" unicode="&#59692;" d="M821.333333 757.333333c64.8 0 117.333333-52.533333 117.333334-117.333333v-512c0-64.8-52.533333-117.333333-117.333334-117.333333H202.666667c-64.8 0-117.333333 52.533333-117.333334 117.333333V640c0 64.8 52.533333 117.333333 117.333334 117.333333h618.666666zM425.546667 499.872a32 32 0 0 1-40.085334-20.992L362.666667 405.952l-22.794667 72.928a32 32 0 1 1-61.077333-19.093333l53.333333-170.666667c9.354667-29.941333 51.733333-29.941333 61.077333 0l53.333334 170.666667a32 32 0 0 1-20.992 40.085333zM512 501.333333a32 32 0 0 1-32-32v-170.666666a32 32 0 0 1 64 0V469.333333a32 32 0 0 1-32 32z m160 0h-64a32 32 0 0 1-32-32v-170.666666a32 32 0 0 1 64 0v53.333333h32a74.666667 74.666667 0 0 1 0 149.333333z m0-64a10.666667 10.666667 0 0 0 0-21.333333h-32v21.333333z"  horiz-adv-x="1024" />

    
    <glyph glyph-name="xiangji-fill" unicode="&#59693;" d="M659.925333 768a74.666667 74.666667 0 0 0 71.338667-52.618667L754.56 640H821.333333c64.8 0 117.333333-52.533333 117.333334-117.333333v-426.666667c0-64.8-52.533333-117.333333-117.333334-117.333333H202.666667c-64.8 0-117.333333 52.533333-117.333334 117.333333V522.666667c0 64.8 52.533333 117.333333 117.333334 117.333333h66.773333l23.296 75.381333A74.666667 74.666667 0 0 0 364.074667 768h295.850666zM512 490.666667c-88.362667 0-160-71.637333-160-160 0-88.362667 71.637333-160 160-160 88.362667 0 160 71.637333 160 160 0 88.362667-71.637333 160-160 160z m0-256a96 96 0 1 1 0 192 96 96 0 0 1 0-192z"  horiz-adv-x="1024" />

    
    <glyph glyph-name="yingyuan-fill" unicode="&#59694;" d="M864 42.66666699999996a32 32 0 0 0 0-64H160a32 32 0 0 0 0 64z m-42.666667 746.666666c64.8 0 117.333333-52.533333 117.333334-117.333333v-540.309333a42.666667 42.666667 0 0 0-78.336-23.402667L672.405333 394.656C628.48 373.18399999999997 574.912 362.66666699999996 512 362.66666699999996s-116.48 10.517333-160.405333 31.989333L163.669333 108.28800000000001A42.666667 42.666667 0 0 0 85.333333 131.69066699999996V672c0 64.8 52.533333 117.333333 117.333334 117.333333h618.666666z"  horiz-adv-x="1024" />

    
    <glyph glyph-name="yinhangka-fill" unicode="&#59695;" d="M938.666667 565.333333H85.333333v74.666667c0 64.8 52.533333 117.333333 117.333334 117.333333h618.666666c64.8 0 117.333333-52.533333 117.333334-117.333333v-74.666667z m0-64v-373.333333c0-64.8-52.533333-117.333333-117.333334-117.333333H202.666667c-64.8 0-117.333333 52.533333-117.333334 117.333333V501.333333h853.333334zM757.333333 224H650.666667a32 32 0 0 1 0-64h106.666666a32 32 0 0 1 0 64z"  horiz-adv-x="1024" />

    
    <glyph glyph-name="xiaoshi-fill" unicode="&#59696;" d="M739.552 810.666667c29.802667 0 54.762667-23.402667 54.762667-53.333334a32 32 0 0 1 32-32h4.266666C860.373333 725.333333 885.333333 701.930667 885.333333 672v-85.333333c0-29.930667-24.96-53.333333-54.752-53.333334h-11.541333l-34.602667-467.338666A117.333333 117.333333 0 0 0 667.413333-42.66666699999996H356.576a117.333333 117.333333 0 0 0-117.013333 108.661334L204.949333 533.333333h-11.52C163.626667 533.333333 138.666667 556.736 138.666667 586.666667v85.333333c0 29.930667 24.96 53.333333 54.752 53.333333h4.266666a32 32 0 0 1 32 32c0 29.930667 24.96 53.333333 54.762667 53.333334h455.104zM512 437.333333a96 96 0 1 1 0-192 96 96 0 0 1 0 192z"  horiz-adv-x="1024" />

    
    <glyph glyph-name="yanchu-fill" unicode="&#59697;" d="M512 810.666667c33.173333 0 65.472-3.786667 96.48-10.954667-0.32-2.154667-0.48-4.373333-0.48-6.634667l0.010667-281.066666A159.296 159.296 0 0 1 512 544c-88.362667 0-160-71.637333-160-160 0-88.362667 71.637333-160 160-160 88.362667 0 160 71.637333 160 160 0 1.493333-0.021333 2.986667-0.064 4.458667 0.042667 0.810667 0.064 1.632 0.064 2.453333V779.658667C828.373333 716.352 938.666667 563.061333 938.666667 384c0-235.637333-191.029333-426.666667-426.666667-426.666667S85.333333 148.362667 85.333333 384 276.362667 810.666667 512 810.666667z"  horiz-adv-x="1024" />

    
    <glyph glyph-name="zengjia-fill" unicode="&#59698;" d="M512 810.666667c235.637333 0 426.666667-191.029333 426.666667-426.666667S747.637333-42.66666699999996 512-42.66666699999996 85.333333 148.362667 85.333333 384 276.362667 810.666667 512 810.666667z m0-234.666667a32 32 0 0 1-32-32v-128H352a32 32 0 0 1 0-64h128v-128a32 32 0 0 1 64 0V352h128a32 32 0 0 1 0 64H544V544a32 32 0 0 1-32 32z"  horiz-adv-x="1024" />

    
    <glyph glyph-name="dianying-fill" unicode="&#59699;" d="M512 810.666667c235.637333 0 426.666667-191.029333 426.666667-426.666667a432.554667 432.554667 0 0 0-4.490667-62.112 423.36 423.36 0 0 0-8.789333-43.914667l-0.458667-1.749333-0.330667-1.301333-1.418666-5.216a423.210667 423.210667 0 0 0-9.365334-29.546667l-1.066666-2.944a426.698667 426.698667 0 0 0-94.357334-150.154667c22.986667-3.082667 43.818667-10.837333 62.4-23.466666a32 32 0 1 0-35.957333-52.938667c-30.485333 20.714667-77.781333 18.965333-144.053333-9.386667a343.68 343.68 0 0 0-5.706667-2.773333l-1.834667-0.853333c-1.568-0.746667-3.136-1.472-4.704-2.186667l-0.874666-0.394667c-1.834667-0.832-3.68-1.653333-5.525334-2.453333l-0.778666-0.330667c-1.706667-0.746667-3.413333-1.472-5.12-2.197333-0.533333-0.202667-1.034667-0.416-1.546667-0.629333-3.658667-1.514667-7.349333-2.986667-11.061333-4.394667l-2.250667-0.832a278.826667 278.826667 0 0 0-3.914667-1.450667l-2.453333-0.874666c-1.6-0.576-3.232-1.152-4.853333-1.706667a322.752 322.752 0 0 0-6.08-2.026667l-1.941334-0.618666c-1.781333-0.576-3.573333-1.130667-5.365333-1.685334l-0.693333-0.202666c-1.717333-0.533333-3.445333-1.034667-5.173334-1.536l-2.101333-0.597334c-1.248-0.362667-2.485333-0.704-3.733333-1.045333l-3.082667-0.832c-1.173333-0.32-2.346667-0.629333-3.530667-0.928l-2.922666-0.736c-1.706667-0.426667-3.434667-0.853333-5.162667-1.258667l-1.173333-0.266666c-10.346667-2.410667-20.821333-4.448-31.424-6.08l-2.592-0.394667-0.746667-0.106667A426.250667 426.250667 0 0 0 512-42.66666699999996C276.362667-42.66666699999996 85.333333 148.362667 85.333333 384S276.362667 810.666667 512 810.666667z m0-522.666667a64 64 0 1 1 0-128 64 64 0 0 1 0 128z m160 160a64 64 0 1 1 0-128 64 64 0 0 1 0 128z m-320 0a64 64 0 1 1 0-128 64 64 0 0 1 0 128z m160 160a64 64 0 1 1 0-128 64 64 0 0 1 0 128z"  horiz-adv-x="1024" />

    
    <glyph glyph-name="youhuiquan-fill" unicode="&#59700;" d="M821.333333 757.333333c64.8 0 117.333333-52.533333 117.333334-117.333333v-149.333333a32 32 0 0 0-32-32 74.666667 74.666667 0 0 1 0-149.333334 32 32 0 0 0 32-32v-149.333333c0-64.8-52.533333-117.333333-117.333334-117.333333H202.666667c-64.8 0-117.333333 52.533333-117.333334 117.333333V277.33333300000004a32 32 0 0 0 32 32 74.666667 74.666667 0 0 1 0 149.333334 32 32 0 0 0-32 32V640c0 64.8 52.533333 117.333333 117.333334 117.333333h618.666666zM428.576 566.0053330000001a32 32 0 0 1-43.733333 2.581334l-1.514667-1.344a32 32 0 0 1-2.581333-43.733334L452.565333 437.333333H405.333333l-1.877333-0.053333A32 32 0 0 1 373.333333 405.333333l0.053334-1.877333A32 32 0 0 1 405.333333 373.33333300000004h80v-42.666666H405.333333l-1.877333-0.053334A32 32 0 0 1 373.333333 298.66666699999996l0.053334-1.877334A32 32 0 0 1 405.333333 266.66666699999996h80v-42.666667l0.053334-1.877333A32 32 0 0 1 517.333333 192l1.877334 0.053333A32 32 0 0 1 549.333333 224v42.666667H618.666667l1.877333 0.053333A32 32 0 0 1 650.666667 298.66666699999996l-0.053334 1.877333A32 32 0 0 1 618.666667 330.66666699999996h-69.333334v42.666666H618.666667l1.877333 0.053334A32 32 0 0 1 650.666667 405.333333l-0.053334 1.877334A32 32 0 0 1 618.666667 437.333333h-47.253334l71.84 86.186667 1.248 1.589333a32 32 0 0 1-50.421333 39.381334L512 465.984l-82.08 98.506667z"  horiz-adv-x="1024" />

    
    <glyph glyph-name="remen-fill" unicode="&#59701;" d="M423.477333-42.66666699999996S45.045333 40.57600000000002 214.186667 453.717333c0 0 38.4-45.909333 33.12-68 0 0 30.101333 104.277333 95.072 166.570667C398.165333 605.8133330000001 454.848 756.288 402.570667 810.666667c0 0 258.933333-54.378667 287.754666-326.378667 0 0 33.12 86.666667 101.12 95.232 0 0-20.906667-47.616 0-119.04 0 0 214.485333-367.146667-155.157333-491.242667 0 0 110.805333 125.813333-124.181333 341.717334 0 0-55.402667-115.626667-88.533334-156.373334-0.096-0.106667-92.522667-103.722667-0.096-197.248z"  horiz-adv-x="1024" />

    
    <glyph glyph-name="chuangzuo-fill" unicode="&#59702;" d="M896 21.781333000000018c17.674667 0 32-14.432 32-32.224A32.106667 32.106667 0 0 0 896-42.66666699999996H128a32.106667 32.106667 0 0 0-32 32.213334 32.106667 32.106667 0 0 0 32 32.234666zM597.898667 657.674667l0.106666-0.106667 150.944-152a21.333333 21.333333 0 0 0 0-30.069333l-324.8-327.061334a159.690667 159.690667 0 0 0-78.048-43.264l-152.085333-34.432c-23.808-5.386667-44.608 16.981333-37.706667 40.554667l43.296 147.84a161.344 161.344 0 0 0 40.32 68.373333l327.797334 330.058667a21.333333 21.333333 0 0 0 30.176 0.106667zM840.746667 765.397333l15.082666-15.189333c45.824-46.144 45.824-120.949333 0-167.082667l-31.552-31.786666a21.333333 21.333333 0 0 0-30.176-0.106667l-0.106666 0.106667-150.944 152a21.333333 21.333333 0 0 0 0 30.08l31.754666 31.978666a116.768 116.768 0 0 0 165.941334 0z"  horiz-adv-x="1024" />

    
    <glyph glyph-name="xiayige" unicode="&#60719;" d="M862.72 770.51733334c-20.992 0-37.888-15.87200001-37.888-35.84L824.832 34.261333339999965c0-19.45599999 16.896-35.84 37.888-35.84 20.992 0 37.888 15.87200001 37.888 35.84l0 700.928c-0.512 19.456-17.408 35.328-37.888 35.328zM682.496 437.20533334l-457.72799999 305.152c-100.864 67.072-97.28-40.448-97.28000001-40.448L127.488 67.54133334000005s-2.048-102.4 83.968-45.56799999L685.568 338.38933334c0.512 0 76.288 46.08-3.072 98.816z m-53.248-50.688l-430.08-286.72 0 572.928 430.08-286.208z"  horiz-adv-x="1024" />

    
    <glyph glyph-name="shangyige" unicode="&#59010;" d="M166.61333334-2.5173333300000422c20.992 0 37.888 15.872 37.888 35.84V733.7386666699999c0 19.456-16.896 35.84-37.888 35.84-20.992 0-37.888-15.872-37.888-35.84v-700.928c0.512-19.456 17.408-35.328 37.888-35.328zM346.83733334 330.79466666999997l457.728-305.152c100.864-67.072 97.28 40.448 97.28 40.448V700.45866667s2.048 102.4-83.968 45.568L343.76533334 429.61066667c-0.512 0-76.288-46.08 3.072-98.816z m53.248 50.688l430.08 286.72v-572.928l-430.08 286.208z"  horiz-adv-x="1024" />

    
    <glyph glyph-name="qiyi" unicode="&#59750;" d="M524.8-38.39999999999998c-148.48 0-284.16 7.68-419.84 30.72-66.56 15.36-104.96 61.44-104.96 122.88 0 17.92 7.68 28.16 25.6 28.16h43.52c17.92 0 28.16-5.12 33.28-23.04 7.68-25.6 28.16-38.4 53.76-40.96 64-7.68 128-17.92 192-20.48 102.4-5.12 202.24-7.68 304.64 0 74.24 5.12 145.92 10.24 220.16 23.04 17.92 2.56 35.84 12.8 38.4 30.72 7.68 28.16 25.6 33.28 51.2 33.28 64 0 66.56-2.56 51.2-64-10.24-38.4-30.72-66.56-71.68-76.8-64-17.92-128-25.6-192-30.72-81.92-10.24-158.72-15.36-225.28-12.8z m2.56 842.24c115.2 7.68 240.64-5.12 368.64-25.6 74.24-12.8 110.08-30.72 125.44-117.76 5.12-23.04-5.12-33.28-28.16-33.28-15.36 0-28.16 2.56-43.52 2.56-17.92 0-28.16 7.68-35.84 23.04-7.68 23.04-28.16 35.84-51.2 38.4-151.04 20.48-299.52 33.28-450.56 23.04-87.04-5.12-174.08-15.36-261.12-25.6-20.48 0-38.4-10.24-43.52-33.28-7.68-25.6-25.6-30.72-48.64-28.16H28.16c-20.48 0-28.16 10.24-28.16 30.72C0 711.6800000000001 33.28 757.76 87.04 768c140.8 30.72 284.16 40.96 440.32 35.84z m-115.2-422.4V256c0-15.36-2.56-28.16-5.12-43.52-5.12-17.92-30.72-35.84 7.68-51.2 10.24-2.56 7.68-23.04 2.56-35.84-2.56-12.8-15.36-15.36-25.6-15.36-28.16 2.56-61.44-2.56-79.36 30.72-5.12 10.24-15.36 10.24-23.04 10.24-10.24 0-20.48 0-30.72 2.56-94.72 12.8-107.52 28.16-107.52 122.88v243.2c0 43.52 15.36 64 58.88 76.8 51.2 15.36 102.4 15.36 153.6-2.56 35.84-12.8 51.2-33.28 51.2-76.8-2.56-40.96-2.56-89.6-2.56-135.68z m-104.96 0v133.12c0 17.92-2.56 33.28-25.6 33.28-20.48 0-28.16-10.24-28.16-30.72v-266.24c0-20.48 5.12-35.84 28.16-35.84 25.6 0 25.6 17.92 25.6 38.4v128z m435.2 76.8c12.8 40.96 25.6 74.24 33.28 107.52 7.68 25.6 17.92 35.84 46.08 35.84 79.36 0 69.12-5.12 48.64-64-17.92-53.76-35.84-107.52-56.32-158.72-23.04-51.2-15.36-104.96-17.92-158.72 0-17.92 7.68-40.96-15.36-48.64-25.6-10.24-51.2-2.56-76.8 2.56-5.12 2.56-7.68 10.24-7.68 15.36v5.12c20.48 130.56-46.08 243.2-84.48 360.96-12.8 38.4-10.24 43.52 30.72 43.52h28.16c23.04 2.56 33.28-7.68 40.96-28.16 5.12-35.84 15.36-69.12 30.72-112.64z m281.6-76.8V204.79999999999995c0-23.04-7.68-35.84-33.28-35.84-66.56 0-66.56-2.56-66.56 66.56V560.64c0 30.72 10.24 40.96 40.96 38.4 61.44 0 61.44 0 61.44-61.44l-2.56-156.16z m-460.8-2.56v-184.32c0-20.48-7.68-28.16-25.6-28.16-76.8-5.12-76.8-5.12-76.8 69.12V552.96c0 40.96 2.56 43.52 43.52 46.08h17.92c30.72 2.56 40.96-10.24 38.4-38.4 2.56-61.44 2.56-120.32 2.56-181.76zM97.28 320v-120.32c0-23.04-10.24-30.72-30.72-30.72C0 166.39999999999998 0 163.84000000000003 0 230.39999999999998v204.8c0 25.6 7.68 35.84 33.28 35.84 74.24 0 61.44 5.12 61.44-58.88 2.56-30.72 2.56-61.44 2.56-92.16z m0 227.84c0-51.2 0-51.2-46.08-51.2-51.2 0-51.2 0-51.2 51.2 0 48.64 0 48.64 51.2 48.64 46.08 2.56 46.08 2.56 46.08-48.64z"  horiz-adv-x="1026" />

    
    <glyph glyph-name="mgtv" unicode="&#59785;" d="M1011.2 186.88V496.64c0 28.16-17.92 53.76-46.08 64l-102.4 28.16-148.48-304.64s-153.6 386.56-153.6 389.12L399.36 716.8c-7.68 2.56-15.36 2.56-23.04 2.56-46.08 0-79.36-35.84-79.36-79.36v-460.8c0-40.96 33.28-74.24 74.24-74.24h7.68l64 5.12h-5.12V593.9200000000001l189.44-463.36 140.8 12.8 181.76 355.84v-258.56c0-92.16-69.12-168.96-163.84-181.76l-455.68-40.96h-10.24c-76.8 0-138.24 61.44-138.24 135.68V622.0799999999999c0 51.2-2.56 97.28 33.28 140.8 28.16 35.84 74.24 53.76 117.76 53.76 15.36 0 30.72-2.56 46.08-7.68l524.8-145.92h7.68c15.36 0 28.16 12.8 28.16 28.16 0 12.8-7.68 23.04-20.48 25.6l-563.2 153.6C327.68 880.64 296.96 885.76 266.24 885.76 125.44 885.76 12.8 775.6800000000001 12.8 640v-527.36c0-125.44 104.96-227.84 232.96-227.84h20.48l509.44 48.64c135.68 12.8 235.52 122.88 235.52 253.44z"  horiz-adv-x="1024" />

    
    <glyph glyph-name="youku" unicode="&#59834;" d="M444.2624 888.89813333c50.8032 5.6448 104.4288 5.6448 155.23200001-2.82240001 98.784-16.9344 189.10080001-64.91519999 259.66079999-132.65279999 64.91519999-62.09280001 112.89600001-141.11999999 135.4752-228.6144 25.4016-90.31679999 25.4016-189.10080001-2.8224-279.4176-11.28960001-36.69120001-28.224-73.3824-45.1584-107.2512-5.6448-11.28960001-14.11199999-22.5792-19.7568-31.0464 2.8224 8.4672 5.6448 14.11199999 8.4672 19.7568 5.6448 16.9344 2.8224 36.69120001-5.64479999 53.6256-8.4672 19.7568-25.4016 33.8688-45.15840001 42.33600001-19.7568 8.4672-45.1584 5.6448-64.9152-2.82240001-8.4672-2.8224-14.11199999-8.4672-19.7568-14.112 28.224 45.1584 47.9808 95.9616 53.62560001 146.76479999 5.6448 59.2704-2.8224 118.5408-25.4016 174.98880002-19.7568 47.9808-50.8032 90.31679999-90.31680001 127.008-39.51359999 33.8688-84.672 59.2704-132.6528 70.55999999-59.2704 16.9344-127.008 16.9344-186.2784 0-36.69120001-11.28960001-70.56-25.4016-98.78399999-45.15839999-33.8688-22.5792-64.91519999-53.6256-87.49440001-84.67200001 2.8224 8.4672 2.8224 16.9344 5.6448 22.5792 2.8224 22.5792-5.6448 45.1584-22.5792 62.09280001-16.9344 8.4672-33.8688 16.9344-53.6256 16.93439999-19.7568 2.8224-42.336-2.8224-56.448-16.93439999-2.8224-2.8224-8.4672-5.6448-11.28960001-11.28960001 22.5792 36.69120001 53.6256 67.7376 84.67200001 98.784 73.3824 64.91519999 166.52159999 107.2512 265.3056 121.3632zM57.5936 603.8357333399999c8.4672 16.9344 14.11199999 31.0464 25.4016 45.15839999 0-8.4672-2.8224-14.11199999-5.6448-22.5792-2.8224-22.5792 5.6448-47.9808 22.5792-64.9152 11.28960001-11.28960001 28.224-19.7568 42.33600001-22.5792 19.7568-2.8224 42.336 0 59.27039999 14.11200001 2.8224 5.6448 8.4672 5.6448 11.2896 8.46719999-8.4672-16.9344-16.9344-33.8688-25.4016-53.6256-25.4016-64.91519999-28.224-135.4752-11.2896-203.2128 11.28960001-45.1584 31.0464-87.49440001 59.2704-124.1856 33.8688-45.1584 76.2048-79.0272 127.008-104.4288 53.6256-25.4016 112.89600001-36.69120001 169.344-33.8688 50.8032 2.8224 101.6064 19.7568 146.76479999 45.1584 39.51359999 22.5792 76.2048 53.6256 104.42880001 90.3168 0-5.6448-2.8224-11.28960001-2.82240001-14.112-2.8224-16.9344-2.8224-33.8688 2.82240001-47.9808 8.4672-19.7568 25.4016-36.69120001 47.98079999-45.15839999 28.224-11.28960001 62.09280001-2.8224 81.84960001 16.93439999 2.8224 2.8224 5.6448 2.8224 5.6448 5.6448-39.51359999-56.448-90.31679999-101.6064-149.5872-138.2976-64.91519999-39.51359999-141.11999999-64.91519999-217.32480001-70.56-47.9808-2.8224-95.9616 0-141.11999999 8.46720001-98.784 19.7568-191.92319999 70.56-262.4832 143.94239999-67.7376 67.7376-112.89600001 155.232-129.83040001 248.3712-11.28960001 50.8032-11.28960001 101.6064-5.64479999 152.4096 5.6448 62.09280001 19.7568 115.71839999 45.1584 166.52160001zM105.5744 680.04053334c16.9344 14.11199999 36.69120001 19.7568 56.448 16.93439999 16.9344-2.8224 36.69120001-8.4672 47.9808-22.5792 16.9344-16.9344 25.4016-39.51359999 22.5792-62.0928 0-8.4672-2.8224-16.9344-5.6448-22.5792-5.6448-8.4672-11.28960001-19.7568-16.9344-28.224 0-2.8224-5.6448-2.8224-8.4672-5.64480001-16.9344-11.28960001-39.51359999-16.9344-59.27039999-14.11199999-16.9344 2.8224-31.0464 11.28960001-42.33600001 22.5792-16.9344 16.9344-25.4016 42.336-22.5792 64.91520001 0 8.4672 2.8224 14.11199999 5.6448 22.57919999 2.8224 5.6448 8.4672 14.11199999 11.28959999 19.7568 2.8224 2.8224 5.6448 5.6448 11.28960001 8.46720001zM822.464 217.16693333c19.7568 11.28960001 42.336 11.28960001 64.9152 2.8224 19.7568-5.6448 36.69120001-22.5792 45.15839999-42.336 8.4672-16.9344 8.4672-36.69120001 5.64480001-53.62560001-2.8224-8.4672-5.6448-14.11199999-8.46719999-19.75679999-2.8224-2.8224-5.6448-5.6448-5.64480001-11.2896-2.8224-2.8224-5.6448-2.8224-5.6448-5.6448-19.7568-19.7568-53.6256-28.224-81.8496-16.93439999-22.5792 8.4672-39.51359999 25.4016-47.9808 45.15839999-5.6448 14.11199999-8.4672 31.0464-2.8224 47.9808 0 5.6448 2.8224 11.28960001 2.8224 14.112 5.6448 8.4672 11.28960001 16.9344 16.93439999 22.57919999 2.8224 5.6448 8.4672 11.28960001 16.93440001 16.93440001zM365.2352 615.12533333c19.7568 16.9344 50.8032 22.5792 76.2048 14.11200001 11.28960001-2.8224 19.7568-11.28960001 31.04640001-16.93440001 64.91519999-45.1584 129.8304-87.49440001 197.56799999-132.65280001 11.28960001-5.6448 19.7568-14.11199999 31.04640001-19.75679999 16.9344-8.4672 28.224-22.5792 36.69119999-39.5136 5.6448-16.9344 5.6448-36.69120001 0-53.6256-5.6448-16.9344-16.9344-31.0464-33.86880001-39.51360001-14.11199999-8.4672-28.224-19.7568-42.33599999-28.22399998L458.3744 163.54133333000004c-16.9344-11.28960001-36.69120001-16.9344-56.448-11.2896-19.7568 2.8224-39.51359999 14.11199999-50.8032 31.0464-11.28960001 16.9344-16.9344 42.336-11.2896 62.0928 5.6448 19.7568 16.9344 36.69120001 33.86879999 47.9808l152.4096 101.6064c-45.1584 31.0464-93.1392 62.09280001-138.29759999 93.1392-5.6448 5.6448-14.11199999 8.4672-19.7568 14.11200001-16.9344 14.11199999-28.224 33.8688-28.224 53.62559998-2.8224 16.9344 5.6448 42.336 25.4016 59.27040001z"  horiz-adv-x="1024" />

    
    <glyph glyph-name="pptv" unicode="&#59857;" d="M235.52-15.360000000000014c5.12 35.84 48.64 40.96 84.48 28.16 48.64-17.92 125.44-46.08 194.56-46.08 256 0 460.8 207.36 460.8 460.8 0 256-207.36 460.8-460.8 460.8S51.2 683.52 51.2 427.52v-458.24c0-51.2 40.96-92.16 92.16-92.16 25.6 0 48.64 10.24 66.56 30.72 20.48 23.04 20.48 46.08 25.6 76.8zM512 153.60000000000002c-153.6 0-276.48 125.44-276.48 276.48S358.4 709.12 512 709.12s276.48-125.44 276.48-276.48S665.6 153.60000000000002 512 153.60000000000002zM670.72 437.76c0-87.04-71.68-158.72-158.72-158.72s-158.72 71.68-158.72 158.72c0 87.04 71.68 158.72 158.72 158.72 87.04 0 158.72-71.68 158.72-158.72z"  horiz-adv-x="1024" />

    
    <glyph glyph-name="chrome-fill" unicode="&#59228;" d="M419.285333-32.554667C228.266667 9.770667 85.333333 180.181333 85.333333 384c0 77.738667 20.778667 150.613333 57.130667 213.418667l182.741333-316.544a213.290667 213.290667 0 0 1 212.309334-108.714667l-118.186667-204.714667zM512-42.666667l182.912 316.8A212.352 212.352 0 0 1 725.333333 384a212.394667 212.394667 0 0 1-42.666666 128h236.458666A425.813333 425.813333 0 0 0 938.666667 384c0-235.648-191.018667-426.666667-426.666667-426.666667z m109.738667 360.746667a127.957333 127.957333 0 0 0-220.586667 1.92l-1.237333 2.133333a128 128 0 1 0 222.933333-2.133333l-1.109333-1.92z m-424.106667 354.389333A425.557333 425.557333 0 0 0 512 810.666667a426.496 426.496 0 0 0 369.578667-213.333334H512a213.376 213.376 0 0 1-196.224-129.493333L197.632 672.469333z"  horiz-adv-x="1024" />

    
    <glyph glyph-name="edge-fill" unicode="&#59230;" d="M880.810667 529.664c-7.253333 30.336-18.816 61.781333-33.024 86.229333-32.896 56.704-62.464 95.445333-135.552 141.653334C639.146667 803.754667 557.909333 810.666667 519.253333 810.666667c-103.04 0-179.669333-36.693333-235.733333-80.512C142.677333 619.946667 128 426.666667 128 426.666667s52.096 87.253333 151.04 150.442666C338.901333 615.296 424.149333 640 493.568 640 677.76 640 682.666667 469.333333 682.666667 469.333333H384c0 85.333333 42.666667 128 42.666667 128s-213.333333-85.333333-213.333334-300.544c0-20.778667-0.128-58.538667 10.581334-97.408 9.898667-35.968 29.866667-72.746667 48.298666-100.394666 52.096-78.165333 129.92-111.530667 167.082667-123.904 42.496-14.165333 86.570667-17.749333 128.426667-17.749334 116.053333 0 208.085333 37.802667 242.944 54.4v178.005334c-32.341333-19.370667-114.304-61.738667-213.333334-61.738667-213.333333 0-213.333333 170.666667-213.333333 170.666667h512v106.24s-1.664 67.968-15.189333 124.757333z"  horiz-adv-x="1024" />

    
    <glyph glyph-name="firefox-fill" unicode="&#59232;" d="M938.666667 384c0-235.648-191.018667-426.666667-426.666667-426.666667S85.333333 148.352 85.333333 384c0 85.162667 24.96 164.48 67.925334 231.082667 0.554667 47.018667 24.618667 102.741333 57.130666 131.242666 1.962667-36.394667 14.933333-64.512 38.826667-84.309333a174.72 174.72 0 0 0 97.877333-8.277333c31.914667 38.4 85.888 43.690667 118.997334 30.762666-32.128-16.64-56.32-49.28-65.706667-74.88 4.48-19.584 20.352-34.517333 40.192-37.717333 56.32-5.546667 67.114667-9.984 68.778667-16.341333 0.085333-1.706667 0.085333-3.370667 0-5.034667-7.210667-32.938667-33.450667-41.685333-49.365334-47.957333-23.466667-9.216-39.808-18.645333-49.066666-28.288 5.376-25.301333-10.282667-53.802667-10.282667-53.802667-6.997333 8.106667-18.56 13.781333-34.688 16.896a38.272 38.272 0 0 1-16.64-15.786667c-6.144-13.909333-6.144-25.088 1.962667-43.264 4.906667-10.965333 40.32-41.045333 49.621333-46.336 40.789333-23.04 69.888 0.853333 101.248 5.290667a83.2 83.2 0 0 0 79.317333-30.762667c11.648-15.274667-1.109333-29.696-16.085333-24.96-15.530667 4.992-34.389333-7.808-65.706667-25.258666a156.416 156.416 0 0 0-99.584-11.648 184.96 184.96 0 0 0-24.96 6.656h-3.626666a199.68 199.68 0 0 1 58.794666-55.466667c15.488-7.850667 32-13.44 49.109334-16.64a198.016 198.016 0 0 1 242.389333 194.133333c0.170667 28.586667-1.408 93.184-45.226667 129.237334a233.813333 233.813333 0 0 0-77.909333 103.722666c-24.832 66.944-4.437333 132.352 18.986667 177.706667 2.133333 4.096 16.469333 34.901333 40.021333 60.629333-2.602667-29.184 45.312-78.848 57.216-85.162666C848.213333 687.189333 938.666667 546.133333 938.666667 384z"  horiz-adv-x="1024" />

    
    <glyph glyph-name="opera-fill" unicode="&#59241;" d="M371.626667 624.426667c-47.274667-55.68-77.781333-138.069333-79.914667-230.4v-20.053334c2.176-92.373333 32.682667-174.634667 79.872-230.4 61.184-79.445333 152.149333-129.877333 253.866667-129.877333a307.541333 307.541333 0 0 1 170.88 52.309333 424.106667 424.106667 0 0 0-304.597334-108.16A426.581333 426.581333 0 0 0 85.333333 384C85.333333 619.690667 276.394667 810.666667 512 810.666667h1.578667a425.386667 425.386667 0 0 0 282.794666-108.629334 308.864 308.864 0 0 1-171.008 52.309334c-101.632 0-192.597333-50.474667-253.866666-129.92h0.085333zM938.666667 384a425.344 425.344 0 0 0-142.293334-318.037333c-109.44-53.333333-211.413333-16.042667-245.205333 7.253333 107.52 23.637333 188.714667 153.6 188.714667 310.784 0 157.226667-81.194667 287.146667-188.714667 310.741333 33.749333 23.253333 135.765333 60.586667 245.205333 7.296A425.258667 425.258667 0 0 0 938.666667 384z"  horiz-adv-x="1024" />

    
    <glyph glyph-name="qq-fill" unicode="&#59244;" d="M849.621333 276.096a1364.352 1364.352 0 0 1-28.8 80.469333l-38.826666 95.829334c0 1.109333 0.512 19.968 0.512 29.696C782.506667 645.973333 704.298667 810.666667 512 810.666667S241.493333 645.973333 241.493333 482.133333c0-9.770667 0.469333-28.629333 0.512-29.738666l-38.826666-95.829334a1398.485333 1398.485333 0 0 1-28.8-80.469333c-36.693333-116.778667-24.789333-165.12-15.744-166.186667 19.413333-2.304 75.562667 87.893333 75.562666 87.893334 0-52.224 27.178667-120.405333 86.016-169.642667-21.973333-6.698667-48.938667-17.024-66.304-29.653333-15.573333-11.392-13.610667-23.04-10.794666-27.733334 12.330667-20.522667 211.413333-13.098667 268.928-6.698666 57.472-6.4 256.597333-13.824 268.885333 6.741333 2.816 4.693333 4.778667 16.298667-10.794667 27.690667-17.365333 12.629333-44.330667 22.954667-66.346666 29.696 58.837333 49.194667 86.016 117.376 86.016 169.642666 0 0 56.149333-90.24 75.562666-87.893333 9.045333 1.066667 20.906667 49.365333-15.786666 166.144"  horiz-adv-x="1024" />

    
    <glyph glyph-name="qq-line" unicode="&#59245;" d="M748.16 362.069333l-29.696 76.629334c0 0.896 0.426667 16 0.426667 23.808C718.848 593.578667 659.029333 725.333333 512 725.333333s-206.848-131.754667-206.848-262.826666c0-7.808 0.384-22.912 0.426667-23.808l-29.696-76.629334c-8.106667-21.973333-16.213333-44.8-22.058667-64.426666-28.032-93.397333-18.944-132.053333-12.032-132.906667 14.848-1.834667 57.770667 70.314667 57.770667 70.314667 0-41.813333 20.821333-96.341333 65.792-135.68-16.810667-5.418667-37.461333-13.653333-50.688-23.765334-11.946667-9.130667-10.453333-18.389333-8.277334-22.186666 9.386667-16.426667 161.706667-10.453333 205.653334-5.333334 43.946667-5.12 196.224-11.093333 205.653333 5.376 2.133333 3.754667 3.626667 13.013333-8.277333 22.144-13.269333 10.112-33.92 18.346667-50.773334 23.722667 45.013333 39.381333 65.792 93.952 65.792 135.722667 0 0 42.965333-72.149333 57.813334-70.314667 6.912 0.853333 16.128 39.594667-12.074667 132.949333-5.973333 19.754667-13.866667 42.410667-22.016 64.384z m43.562667-351.018666c-15.914667-27.818667-35.541333-38.058667-61.354667-45.098667a209.493333 209.493333 0 0 0-33.877333-5.888c-18.773333-1.92-42.069333-2.773333-68.821334-2.730667a1417.813333 1417.813333 0 0 0-115.626666 4.949334c-29.525333-2.773333-76.16-4.864-115.626667-4.949334a685.653333 685.653333 0 0 0-68.864 2.730667 210.261333 210.261333 0 0 0-33.834667 5.888c-25.813333 6.997333-45.44 17.28-61.44 45.184a97.024 97.024 0 0 0-10.197333 70.485333c-25.258667 5.632-42.709333 20.608-54.570667 38.869334a103.68 103.68 0 0 0-13.184 30.293333 171.861333 171.861333 0 0 0-4.949333 47.189333c0.554667 33.493333 7.978667 75.178667 22.698667 124.245334 5.973333 19.882667 13.952 43.008 24.234666 70.613333l23.594667 61.013333a661.162667 661.162667 0 0 0-0.085333 8.661334C219.818667 656.853333 323.754667 810.666667 512 810.666667c188.288 0 292.181333-153.813333 292.181333-348.16l-0.042666-8.661334 23.594666-61.013333 0.426667-1.109333c9.6-25.856 17.621333-49.194667 23.722667-69.376 14.848-49.066667 22.272-90.837333 22.826666-124.416 0.298667-17.365333-1.28-33.109333-5.034666-47.274667-2.816-10.496-6.869333-20.48-13.226667-30.208-11.776-18.218667-29.184-33.109333-54.485333-38.826667 5.546667-23.637333 2.346667-48.64-10.24-70.570666z"  horiz-adv-x="1024" />

    
    <glyph glyph-name="wechat-pay-fill" unicode="&#59254;" d="M395.52 270.122667a28.245333 28.245333 0 0 0-37.546667 11.477333l-1.834666 4.053333-77.568 170.581334a20.181333 20.181333 0 0 0 0 6.186666 13.952 13.952 0 0 0 14.293333 13.994667 13.013333 13.013333 0 0 0 8.362667-2.816l93.013333-65.152a42.197333 42.197333 0 0 1 23.296-7.125333 38.144 38.144 0 0 1 14.592 2.816l428.672 192a457.813333 457.813333 0 0 1-348.629333 150.442666C276.394667 746.581333 85.333333 587.434667 85.333333 389.546667a334.08 334.08 0 0 1 147.626667-268.629334 28.245333 28.245333 0 0 0 10.24-31.018666l-19.2-72.576a40.32 40.32 0 0 1-2.176-10.24 13.952 13.952 0 0 1 14.250667-14.250667 17.664 17.664 0 0 1 8.106666 2.474667l93.013334 53.973333c6.826667 4.181333 14.634667 6.442667 22.656 6.485333 4.224 0 8.405333-0.597333 12.373333-1.834666 45.354667-12.8 92.202667-19.285333 139.306667-19.2 235.733333 0 427.093333 159.104 427.093333 355.413333a308.309333 308.309333 0 0 1-46.805333 165.674667L398.933333 272l-3.413333-1.877333z"  horiz-adv-x="1024" />

    
    <glyph glyph-name="wechat-fill" unicode="&#59255;" d="M792.490667 310.997333a38.826667 38.826667 0 0 1 38.314666 38.314667c0 21.248-17.024 38.314667-38.314666 38.314667s-38.314667-17.066667-38.314667-38.314667c0-21.333333 17.066667-38.314667 38.314667-38.314667z m-188.8 0a38.826667 38.826667 0 0 1 38.314666 38.314667c0 21.248-17.066667 38.314667-38.314666 38.314667-21.333333 0-38.314667-17.066667-38.314667-38.314667 0-21.333333 17.024-38.314667 38.314667-38.314667z m280.192-215.04a14.805333 14.805333 0 0 1-7.338667-15.786666c0-2.048 0-4.138667 1.066667-6.272 4.181333-17.792 12.544-46.122667 12.544-47.189334 0-3.114667 1.066667-5.205333 1.066666-7.338666a9.386667 9.386667 0 0 0-9.429333-9.386667c-2.133333 0-3.157333 1.024-5.248 2.048l-61.824 35.669333a34.090667 34.090667 0 0 1-14.677333 4.181334c-3.114667 0-6.272 0-8.362667-1.024-29.354667-8.405333-59.733333-12.586667-92.202667-12.586667-156.16 0-281.898667 104.832-281.898666 234.88 0 130.005333 125.738667 234.88 281.898666 234.88 156.117333 0 281.856-104.874667 281.856-234.88 0-70.272-37.717333-134.229333-97.450666-177.237333zM711.381333 550.442667a388.48 388.48 0 0 1-11.946666 0.213333c-178.090667 0-324.522667-122.026667-324.522667-277.546667 0-23.637333 3.413333-46.506667 9.728-68.266666h-3.797333a425.088 425.088 0 0 0-110.250667 15.701333c-3.157333 1.066667-6.314667 1.066667-9.472 1.066667a35.498667 35.498667 0 0 1-17.834667-5.248l-74.581333-42.88c-2.133333-1.066667-4.224-2.133333-6.314667-2.133334a11.648 11.648 0 0 0-11.52 11.52c0 3.157333 1.024 5.248 2.090667 8.405334 1.024 1.024 10.496 35.584 15.744 56.490666 0 2.133333 1.024 5.248 1.024 7.338667a23.722667 23.722667 0 0 1-9.429333 18.858667C87.808 325.290667 42.666667 401.664 42.666667 486.485333 42.666667 642.346667 194.986667 768 381.866667 768c160.64 0 295.68-92.544 329.514666-217.514667z m-219.904-17.834667c24.448 0 43.776 20.352 43.776 43.776 0 24.448-19.328 43.776-43.776 43.776s-43.776-19.328-43.776-43.776 19.328-43.776 43.776-43.776z m-224.426666 0c24.448 0 43.818667 20.352 43.818666 43.776 0 24.448-19.370667 43.776-43.818666 43.776-24.405333 0-43.776-19.328-43.776-43.776s19.370667-43.776 43.776-43.776z"  horiz-adv-x="1024" />

    
    </font>
</defs>
</svg>
